<svg xmlns="http://www.w3.org/2000/svg" viewBox="0 0 619.52002 129.56582">
    <path fill="#58595b" d="M15.66211 52.44082a9.7359 9.7359 0 0 1 9.39843 9.61328v58.00586a9.71582 9.71582 0 0 1-9.39843 9.50488H9.72165a9.779 9.779 0 0 1-9.72168-9.50488V62.0541a9.65843 9.65843 0 0 1 9.72168-9.61328zm-2.5918 70.31934a4.127 4.127 0 0 0 4.10449-4.21289V63.4584a4.1268 4.1268 0 0 0-4.10449-4.21191h-1.18848a4.26793 4.26793 0 0 0-4.10449 4.21191v55.08887a4.26882 4.26882 0 0 0 4.10449 4.21289zM89.76265 119.95156a9.26729 9.26729 0 0 1-9.29 9.18164v.10743h-5.94043a9.362 9.362 0 0 1-9.61328-9.28907V55.35781a2.33836 2.33836 0 0 1 2.26856-2.16113h5.50879v65.35059a4.01125 4.01125 0 0 0 3.99609 4.10449h1.18848a4.10231 4.10231 0 0 0 4.10449-4.10449V53.19672h7.7773zM154.78906 58.81387c-.43164.97265-1.62012 2.05273-4.10449 2.05273h-6.04883a1.992 1.992 0 0 0-1.94434 1.83594v66.10645h-5.50875c-1.83691 0-2.16015-1.08008-2.16015-1.62012V60.8666h-10.9102v-5.293a2.398 2.398 0 0 1 2.376-2.37695h30.89355zM205.2334 53.19672a9.80112 9.80112 0 0 1 9.8291 9.50586v19.55074c0 7.3457-3.56446 12.63867-11.01758 12.63867h-4.64453v33.917h-5.50874c-1.83691 0-2.16113-1.08008-2.16113-1.62012V53.19672zm2.376 10.91016a4.10755 4.10755 0 0 0-4.10449-3.67285h-4.10449v27.22069h4.10449a4.10756 4.10756 0 0 0 4.10449-3.67285zM269.50293 52.44082a9.73505 9.73505 0 0 1 9.39746 9.61328v58.00586a9.71428 9.71428 0 0 1-9.39746 9.50488h-5.94043a9.779 9.779 0 0 1-9.72168-9.50488V62.0541a9.65905 9.65905 0 0 1 9.72168-9.61328zm-2.5918 70.31934a4.127 4.127 0 0 0 4.10449-4.21289V63.4584a4.12679 4.12679 0 0 0-4.10449-4.21191h-1.18848a4.26793 4.26793 0 0 0-4.10449 4.21191v55.08887a4.26882 4.26882 0 0 0 4.10449 4.21289zM335.28613 72.2084v-8.75a4.10586 4.10586 0 1 0-8.209 0v7.2373c0 4.42872 3.34863 10.15332 3.34863 10.15332l9.28906 17.499c3.78027 6.91308 3.45606 11.99023 3.45606 11.99023v9.61328a9.65759 9.65759 0 0 1-9.72071 9.61328h-4.86133a9.81285 9.81285 0 0 1-9.39746-9.61328v-7.77731a4.44264 4.44264 0 0 1 2.16016-4.21289c.64844-.21582 3.78125-1.62012 5.72559-2.48438v13.17877a4.1052 4.1052 0 1 0 8.209-.1084v-8.6416c0-4.42872-3.34863-10.26172-3.34863-10.26172l-9.28906-17.39063c-3.78125-6.91308-3.457-11.98926-3.457-11.98926v-7.77739a10.03285 10.03285 0 0 1 9.72168-10.0459h4.86036c5.18554.1084 9.39746 4.86133 9.39746 10.0459v2.916a4.4409 4.4409 0 0 1-2.16016 4.21289c-.6475.32423-3.67192 1.72853-5.72465 2.59279zM408.62988 58.81387c-.43164.97265-1.62012 2.05273-4.10449 2.05273h-6.04883a1.992 1.992 0 0 0-1.94434 1.83594v66.10645h-5.50878c-1.83692 0-2.16016-1.08008-2.16016-1.62012V60.8666h-10.91016v-5.293a2.398 2.398 0 0 1 2.376-2.37695h30.89353z"></path>
    <path fill="#ed1a3b" d="M490.54638 119.95254a9.66037 9.66037 0 0 1-9.39746 9.61328h-4.64453a9.65781 9.65781 0 0 1-9.72168-9.61328v-3.34863c0-2.48438 1.08008-3.67285 2.16016-4.21289.54-.32325 3.67285-1.62012 5.61719-2.5918v8.85742a4.1045 4.1045 0 0 0 8.209 0v-20.0918a4.12332 4.12332 0 0 0-3.457-3.67187 2.47217 2.47217 0 0 1-2.376-2.377v-5.40039h1.72852a4.10757 4.10757 0 0 0 4.10449-3.67286V63.35195a4.1045 4.1045 0 0 0-8.209 0v8.749c-1.94434-.86426-5.07715-2.16016-5.61719-2.48438-1.08008-.54-2.16016-1.72851-2.16016-4.21289v-3.34863a9.65843 9.65843 0 0 1 9.72168-9.61328h4.64453a9.66037 9.66037 0 0 1 9.39746 9.61328V84.4154a9.79876 9.79876 0 0 1-2.70019 6.58887 9.53027 9.53027 0 0 1 2.70019 6.48047zM557.84131 53.19766s-13.82618 26.57226-13.82618 75.6123h-5.40136a2.39719 2.39719 0 0 1-2.376-2.376c.32422-32.40528 6.58887-54.54883 10.58594-65.459h-10.4785c-2.59179 0-3.67187-1.1875-4.21191-2.16016l-2.59277-5.61718zM609.90674 52.4418a9.63549 9.63549 0 0 1 9.61328 9.61328v57.89746a9.63486 9.63486 0 0 1-9.61328 9.61328h-4.75293a9.73573 9.73573 0 0 1-9.39746-9.61328v-3.34863a4.4409 4.4409 0 0 1 2.16015-4.21289c.64844-.32325 3.67285-1.83594 5.61719-2.7002v8.85742a4.061 4.061 0 0 0 4.10449 4.21289 4.127 4.127 0 0 0 4.10449-4.21289V98.45742h-5.18457c-9.18164 0-10.80175-5.9414-10.80175-10.91015V62.05508a9.57013 9.57013 0 0 1 9.28906-9.61328zm1.83593 11.01758a4.11179 4.11179 0 0 0-8.209-.43164v24.51953c0 2.80859.97168 3.99707 4.10449 3.99707h4.10449z"></path>
    <g fill="#ed1a3b">
        <path d="M434.68093 126.59101c.05858-.19079 6.48034-29.68757 9.70278-42.2042 3.81685-14.82611 7.46469-27.77552 13.97-44.08268 4.16352-10.43678 6.21855-14.46337 9.00951-20.43023 5.16721-11.04707 8.21561-16.31394 8.3-16.44.64179-.95862 1.43143-2.42455.45724-3.03693-1.36537-.8582-1.91885-.19584-2.55662.76052a31.87373 31.87373 0 0 1-2.95618 6.33946c-3.23063 5.57466-9.85481 19.83422-13.21467 27.93214a337.28993 337.28993 0 0 0-11.74649 33.8224c-6.0145 20.713-13.5561 56.31417-13.60885 56.594-.27144 1.438-.4097 2.9044.91118 3.00923 1.47046.11688 1.36367-1.06282 1.7321-2.26371z"></path>
        <path d="M475.57665 8.01561c-1.1524.31983-2.11494.63851-4.65012 1.526s-10.61846 3.33592-11.1576 12.17327c-.54312 8.90253 4.36337 13.1673 5.50678 13.89092a.46684.46684 0 0 1-.36087.85811 18.8165 18.8165 0 0 1-2.22726-1.09506s-8.44035-4.14079-14.27337-5.57253a27.97338 27.97338 0 0 0-11.51461.11493c-3.51194.69166-6.01789 1.22422-9.99112 2.35568-7.94637 2.263-10.8275-1.49085-18.156-2.67514s-11.50773 1.24878-19.39271-3.39016c0 0-5.1046-3.96288-6.62516-5.48046s-3.31822-4.5447-3.09567-4.92856 1.519-.00148 2.70649.2151 5.04107 1.81484 9.16209 1.14722a39.00126 39.00126 0 0 0 11.848-4.41787c2.92763-1.68777 8.69124-2.48709 12.67335-2.06581a27.80831 27.80831 0 0 0 9.90923-.77259 46.96509 46.96509 0 0 0 8.48463-3.91488 40.65774 40.65774 0 0 1 14.95077-4.2758c4.15563-.368 10.51818.54244 16.47185 2.51711s8.51238 2.96953 9.40413 2.9531.59896.762.32717.83742z"></path>
    </g>
</svg>