<svg width="461" height="474" viewBox="0 0 461 474" fill="none" xmlns="http://www.w3.org/2000/svg">
<path opacity="0.3" fill-rule="evenodd" clip-rule="evenodd" d="M425.268 457.827L116.564 284.177C112.667 282.401 106.94 280.729 103.121 283.064L93.3423 289.034C91.3762 290.234 84.9086 294.222 89.2322 296.57C101.96 303.475 387.006 464.709 399.932 471.72C402.376 473.046 405.953 473.522 409.707 473.205C413.446 472.891 417.326 471.872 420.295 470.035L424.201 467.623C426.963 465.915 428.492 464.052 428.638 462.267C428.78 460.527 427.658 458.913 425.268 457.827Z" fill="black" fill-opacity="0.43"/>
<path fill-rule="evenodd" clip-rule="evenodd" d="M151.977 1.23837C149.85 0.028827 147.356 -0.420708 145.018 0.462192L139.796 2.50289C137.901 12.3215 408.799 462.733 411.221 465.23L415.884 463.47C418.946 462.264 420.55 459.078 421 455.98L460.365 187.249C460.368 187.239 460.368 187.226 460.368 187.22C461.008 182.699 459.65 177.996 457.167 174.219C455.828 172.185 454.069 170.319 451.908 169.148L151.977 1.23837Z" fill="url(#paint0_linear_77_211)"/>
<path fill-rule="evenodd" clip-rule="evenodd" d="M446.757 171.134L146.826 3.22744C141.154 0.0806902 135.753 3.10131 134.751 9.94459L95.3828 278.676C94.3804 285.519 98.151 293.624 103.823 296.767L403.754 464.677C409.426 467.82 414.843 464.809 415.842 457.969L455.21 189.235C456.216 182.391 452.429 174.28 446.757 171.134Z" fill="url(#paint1_linear_77_211)"/>
<path fill-rule="evenodd" clip-rule="evenodd" d="M446.757 171.134L146.826 3.22744C141.154 0.0806902 135.753 3.10131 134.751 9.94459L133.422 19.0064L453.868 198.4L455.21 189.231C456.216 182.391 452.429 174.28 446.757 171.134Z" fill="#4A9FF8"/>
<path fill-rule="evenodd" clip-rule="evenodd" d="M144.963 9.9154C147.237 10.4361 148.986 13.1462 148.867 15.9663C148.747 18.7864 146.807 20.6525 144.533 20.1318C142.26 19.6111 140.51 16.9042 140.63 14.0809C140.746 11.2608 142.687 9.39471 144.963 9.9154Z" fill="#5858F0"/>
<path fill-rule="evenodd" clip-rule="evenodd" d="M155.321 15.8659C157.594 16.3866 159.344 19.0935 159.224 21.9169C159.105 24.737 157.164 26.603 154.888 26.0824C152.614 25.5617 150.865 22.8548 150.985 20.0314C151.104 17.2081 153.048 15.3453 155.321 15.8659Z" fill="#5858F0"/>
<path fill-rule="evenodd" clip-rule="evenodd" d="M166.53 22.3989C168.803 22.9196 170.552 25.6297 170.433 28.4499C170.313 31.27 168.373 33.136 166.096 32.6153C163.823 32.0946 162.073 29.3877 162.193 26.5644C162.313 23.7443 164.253 21.8782 166.53 22.3989Z" fill="#5858F0"/>
<path opacity="0.18" fill-rule="evenodd" clip-rule="evenodd" d="M410.28 264.297L356.402 234.715C353.278 232.985 350.215 232.739 347.661 233.735C344.385 235.013 341.93 238.328 341.225 243.159L335.117 286.978C333.856 295.58 338.596 305.764 345.727 309.716L399.608 339.298C406.739 343.25 413.543 339.466 414.804 330.867L420.909 287.046C422.167 278.446 417.407 268.249 410.28 264.297Z" fill="url(#paint2_linear_77_211)"/>
<path opacity="0.18" fill-rule="evenodd" clip-rule="evenodd" d="M331.411 110.178L449.544 167.802L446.414 170.998L435.076 250.255C433.919 258.385 427.732 261.988 421.278 258.295L310.698 195.066L301.094 173.64L331.411 110.178Z" fill="url(#paint3_linear_77_211)"/>
<path opacity="0.18" fill-rule="evenodd" clip-rule="evenodd" d="M183.064 232.461L110.029 191.974L107.587 195.703L95.5962 277.395L171.244 319.331C179.251 323.768 186.893 319.519 188.306 309.862L194.996 258.004C196.413 248.347 191.067 236.898 183.064 232.461Z" fill="url(#paint4_linear_77_211)"/>
<path fill-rule="evenodd" clip-rule="evenodd" d="M179.83 250.374L171.105 307.705L172.489 307.873L176.266 306.405C180.409 304.775 182.582 300.46 183.19 296.269L189.609 246.558C189.612 246.545 189.616 246.529 189.616 246.516C190.482 240.401 188.645 234.036 185.282 228.926C183.471 226.174 181.091 223.651 178.168 222.063L26.7812 138.146C23.8999 136.51 20.527 135.902 17.3676 137.095L14.0368 138.395C12.3617 139.026 11.8411 139.527 11.854 139.634C13.4256 154.284 182.035 235.346 179.83 250.374Z" fill="#D0E7FF"/>
<path fill-rule="evenodd" clip-rule="evenodd" d="M174.355 223.564L22.9751 139.643C19.6119 137.78 16.3167 137.515 13.5647 138.589C10.0367 139.963 7.39789 143.534 6.63471 148.734L0.218871 198.448C-1.13932 207.707 3.9636 218.674 11.6406 222.927L163.021 306.848C170.698 311.1 178.022 307.026 179.381 297.77L185.796 248.052C187.155 238.793 182.032 227.817 174.355 223.564Z" fill="url(#paint5_linear_77_211)"/>
<path opacity="0.5" fill-rule="evenodd" clip-rule="evenodd" d="M172.561 239.033L68.0864 181.563C67.2812 181.117 66.4922 181.056 65.8357 181.311C64.9917 181.638 64.3611 182.491 64.18 183.737L63.6044 187.226C63.281 189.438 64.5001 192.061 66.3337 193.077L170.808 250.546C172.645 251.561 174.394 250.588 174.717 248.376L175.293 244.886C175.62 242.674 174.397 240.051 172.561 239.033ZM114.381 252.551C116.215 253.566 117.441 256.193 117.117 258.405L116.542 261.894C116.218 264.106 114.469 265.08 112.632 264.064L60.0893 235.779C58.2557 234.764 57.0333 232.141 57.3599 229.929L57.9355 226.439C58.1199 225.194 58.7505 224.34 59.5912 224.014C60.2477 223.758 61.0368 223.82 61.842 224.266L114.381 252.551ZM169.437 260.384C171.27 261.399 172.496 264.025 172.172 266.238L171.597 269.727C171.273 271.942 169.521 272.913 167.687 271.897L63.2131 214.428C61.3795 213.412 60.1572 210.79 60.4838 208.577L61.0626 205.088C61.2437 203.843 61.8775 202.989 62.7183 202.662C63.3748 202.404 64.1638 202.468 64.969 202.911L169.437 260.384Z" fill="#FFFCF1"/>
<path opacity="0.5" fill-rule="evenodd" clip-rule="evenodd" d="M34.7913 180.548C29.8501 177.808 24.6114 181.502 24.6631 188.652C24.6857 192.352 26.2574 196.162 28.7312 198.548C29.3812 199.176 30.0571 199.674 30.7329 200.049C35.6645 202.782 40.8806 199.092 40.8418 191.974C40.8321 188.267 39.2701 184.441 36.806 182.061C36.1528 181.431 35.4737 180.929 34.7913 180.548ZM30.0312 203.406C29.1225 202.902 28.2203 202.235 27.3439 201.394C24.0067 198.193 21.9176 193.06 21.8691 188.08C21.8109 178.491 28.8412 173.507 35.4834 177.187C36.405 177.698 37.3202 178.374 38.2062 179.235C41.5306 182.43 43.6196 187.562 43.6422 192.543C43.6843 202.109 36.6605 207.083 30.0312 203.406ZM52.6483 195.259C53.8028 195.9 54.4948 197.581 54.1812 199.03L52.975 204.648C52.6645 206.081 51.4777 206.721 50.32 206.081L49.7282 205.751C48.8422 205.262 47.9076 205.528 47.3902 206.398C47.0539 206.96 46.6949 207.491 46.3166 207.992C45.7151 208.781 45.6149 210.042 46.0773 211.171L46.3877 211.934C46.9827 213.386 46.627 215.039 45.6019 215.595L41.5338 217.791C41.0132 218.073 40.4246 218.027 39.8846 217.733C39.3478 217.435 38.8659 216.886 38.5652 216.145L38.2515 215.401C37.9572 214.683 37.4851 214.137 36.9451 213.833C36.6346 213.661 36.3015 213.574 35.9684 213.584C35.3928 213.587 34.8075 213.564 34.2287 213.509C33.3006 213.422 32.5245 214.078 32.2884 215.178L32.1332 215.912C31.8227 217.345 30.6359 217.985 29.4782 217.345L24.9445 214.832C23.7868 214.188 23.098 212.51 23.4052 211.074L23.5636 210.343C23.7997 209.244 23.444 207.96 22.6776 207.109C22.1893 206.572 21.7333 206.016 21.2806 205.447C21.0219 205.107 20.7276 204.848 20.4171 204.674C19.8771 204.373 19.2918 204.337 18.7841 204.612L18.2537 204.887C17.7331 205.169 17.1413 205.127 16.6045 204.829C16.0677 204.531 15.5859 203.978 15.2851 203.241L12.9277 197.481C12.3359 196.032 12.6916 194.377 13.7135 193.82L14.2503 193.529C15.0491 193.099 15.4565 192.006 15.2851 190.79C15.1752 190.017 15.1008 189.244 15.0523 188.468C14.9779 187.271 14.3441 186.136 13.458 185.645L12.8662 185.315C11.7085 184.674 11.023 182.993 11.3302 181.56L12.5396 175.942C12.8501 174.494 14.0401 173.85 15.1946 174.494L15.7864 174.82C16.6756 175.312 17.607 175.047 18.1244 174.177C18.4607 173.614 18.8197 173.083 19.2012 172.582C19.7995 171.809 19.8997 170.545 19.4341 169.416L19.1236 168.656C18.5351 167.188 18.8876 165.548 19.9159 164.979L23.984 162.78C24.5047 162.502 25.0964 162.544 25.6333 162.838C26.1701 163.135 26.6519 163.689 26.9526 164.426L27.2631 165.186C27.5574 165.904 28.0295 166.454 28.5695 166.754C28.88 166.926 29.2098 167.016 29.5461 167.007C30.125 166.99 30.7103 167.01 31.2859 167.065C32.214 167.168 32.9869 166.512 33.223 165.412L33.3814 164.678C33.6919 163.229 34.8819 162.589 36.0364 163.229L40.5734 165.742C41.7278 166.382 42.4166 168.064 42.1062 169.513L41.9477 170.247C41.7117 171.347 42.0674 172.627 42.8273 173.459C43.3156 173.995 43.7845 174.558 44.2308 175.147C44.4895 175.486 44.7838 175.745 45.0942 175.917C45.6343 176.217 46.2196 176.253 46.724 175.978L47.2608 175.687C47.7815 175.406 48.3733 175.448 48.9101 175.745C49.4469 176.043 49.9287 176.592 50.2295 177.333L52.5837 183.093C53.1755 184.561 52.823 186.201 51.7946 186.77L51.2578 187.061C50.4591 187.491 50.0516 188.584 50.2262 189.784C50.333 190.557 50.4106 191.33 50.4591 192.103C50.5334 193.303 51.164 194.438 52.0533 194.93L52.6483 195.259Z" fill="#FFFCF1"/>
<path opacity="0.18" fill-rule="evenodd" clip-rule="evenodd" d="M165.986 42.8803L133.312 27.0851L120.416 107.785L118.757 119.123L152.728 137.457C158.629 140.727 164.263 137.593 165.304 130.475L174.779 61.7155C175.827 54.5908 171.885 46.1531 165.986 42.8803Z" fill="url(#paint6_linear_77_211)"/>
<path fill-rule="evenodd" clip-rule="evenodd" d="M162.002 62.0711L151.822 127.852L152.886 127.981L155.79 126.853C158.975 125.598 160.644 122.283 161.113 119.059L169.521 59.1346C169.524 59.1249 169.524 59.112 169.524 59.1023C170.19 54.3999 168.777 49.5036 166.193 45.5774C164.803 43.4591 162.972 41.5219 160.722 40.3027L98.2416 6.3482C96.0265 5.09015 93.4297 4.62444 91.0012 5.53968L88.44 6.53901C87.1529 7.02412 86.7519 7.41221 86.7616 7.48983C87.9678 18.7573 163.697 50.5158 162.002 62.0711Z" fill="#D0E7FF"/>
<path fill-rule="evenodd" clip-rule="evenodd" d="M157.792 41.4573L95.315 7.49961C92.728 6.06692 90.1959 5.86317 88.0778 6.68786C85.3646 7.7454 83.3338 10.4879 82.7485 14.4884L74.3406 74.4124C73.2961 81.5338 77.2219 89.965 83.1236 93.2347L145.604 127.192C151.505 130.462 157.139 127.331 158.18 120.21L166.585 60.2828C167.632 53.1678 163.694 44.7269 157.792 41.4573Z" fill="url(#paint7_linear_77_211)"/>
<path fill-rule="evenodd" clip-rule="evenodd" d="M146.218 111.158L83.4503 77.4622C82.0016 76.686 80.6175 77.4849 80.3394 79.283C80.0678 81.0197 81.0088 83.0669 82.4543 83.8463L145.222 117.539C146.671 118.318 148.081 117.526 148.362 115.731C148.627 113.997 147.664 111.934 146.218 111.158ZM149.025 92.9146C150.471 93.694 151.434 95.7541 151.166 97.4875C150.885 99.2857 149.475 100.075 148.026 99.2954L85.258 65.5997C83.8093 64.8203 82.8682 62.7763 83.1431 61.0364C83.4244 59.2383 84.8053 58.4394 86.254 59.2156L149.025 92.9146ZM155.48 51.5509L92.7119 17.8584C91.2664 17.079 89.8823 17.881 89.6107 19.6177L88.9122 24.0807C88.6438 25.8174 89.5848 27.8646 91.0303 28.6408L153.798 62.3365C155.244 63.1127 156.654 62.3268 156.925 60.5901L157.621 56.1271C157.895 54.3904 156.925 52.3303 155.48 51.5509ZM151.848 74.82C153.294 75.5962 154.264 77.6304 153.995 79.3671C153.708 81.1976 152.304 81.9511 150.859 81.1749L88.0876 47.476C86.6388 46.6998 85.6946 44.6817 85.963 42.9483C86.2508 41.121 87.6316 40.3513 89.0771 41.1243L151.848 74.82Z" fill="#FFFCF1"/>
<path fill-rule="evenodd" clip-rule="evenodd" d="M407.434 284.711L400.009 330.521L401.167 330.66L404.326 329.435C407.79 328.07 409.607 324.464 410.115 320.961L415.612 281.519C415.616 281.506 415.619 281.493 415.619 281.483C416.343 276.37 414.807 271.047 411.997 266.775C410.484 264.472 408.495 262.363 406.047 261.037L357.543 234.408C355.134 233.04 352.314 232.532 349.669 233.528L346.885 234.615C345.484 235.142 345.051 235.563 345.061 235.65C346.37 247.904 409.277 272.143 407.434 284.711Z" fill="#D0E7FF"/>
<path fill-rule="evenodd" clip-rule="evenodd" d="M402.858 262.292L354.358 235.663C351.545 234.104 348.789 233.884 346.49 234.78C343.541 235.928 341.332 238.913 340.695 243.263L335.198 282.709C334.063 290.451 338.331 299.62 344.747 303.177L393.248 329.807C399.667 333.364 405.791 329.959 406.926 322.216L412.424 282.767C413.559 275.028 409.274 265.85 402.858 262.292Z" fill="white"/>
<path opacity="0.5" fill-rule="evenodd" clip-rule="evenodd" d="M381.729 265.028C382.091 265.756 382.223 266.487 382.13 267.285C382.062 267.858 381.754 268.831 381.25 270.173L370.915 298.876C370.582 299.836 370.274 300.564 370.055 301.088C369.802 301.618 369.514 301.945 369.12 302.09C368.761 302.249 368.266 302.139 367.629 301.744C366.08 300.787 365.395 299.429 365.589 297.786C365.64 297.353 365.919 296.36 366.442 294.794L376.749 266.073C377.276 264.549 377.745 263.563 378.136 263.104C378.511 262.638 379.161 262.696 380.031 263.236C380.817 263.728 381.376 264.304 381.729 265.028ZM384.487 272.483L383.539 280.464L398.809 298.177L381.693 296.01L380.742 304.028L405.371 305.952L406.176 299.157L384.487 272.483ZM341.439 266.393L363.137 293.096L364.088 285.079L348.893 267.253L365.928 269.569L366.889 261.484L342.254 259.517L341.439 266.393Z" fill="#FBB03B"/>
<path fill-rule="evenodd" clip-rule="evenodd" d="M217.003 266.829C217.876 260.866 222.416 258.23 227.144 260.956L297.443 300.599C302.168 303.323 305.298 310.376 304.425 316.34L295.073 379.98C294.2 385.943 289.653 388.576 284.928 385.853L214.632 346.206C209.901 343.48 206.777 336.43 207.65 330.466L217.003 266.829Z" fill="white"/>
<path fill-rule="evenodd" clip-rule="evenodd" d="M225.556 331.698L250.078 297.731L254.831 333.752L266.777 320.764L273.814 359.285L225.556 331.698Z" fill="#03B2FF"/>
<path opacity="0.2" fill-rule="evenodd" clip-rule="evenodd" d="M222.713 275.936C223.438 270.982 227.212 268.792 231.141 271.056L289.55 303.995C293.475 306.259 296.075 312.119 295.351 317.074L287.583 369.951C286.859 374.905 283.082 377.092 279.156 374.831L220.747 341.892C216.818 339.628 214.222 333.768 214.946 328.813L222.713 275.936Z" fill="url(#paint8_linear_77_211)"/>
<path fill-rule="evenodd" clip-rule="evenodd" d="M311.872 321.935C312.745 315.971 317.286 313.335 322.013 316.062L392.31 355.705C397.034 358.428 400.164 365.481 399.291 371.445L389.942 435.085C389.069 441.048 384.523 443.681 379.798 440.958L309.502 401.315C304.771 398.588 301.647 391.538 302.52 385.575L311.872 321.935Z" fill="white"/>
<path opacity="0.5" fill-rule="evenodd" clip-rule="evenodd" d="M320.426 386.803L344.948 352.836L349.701 388.857L361.65 375.869L368.684 414.39L320.426 386.803Z" fill="url(#paint9_linear_77_211)"/>
<path fill-rule="evenodd" clip-rule="evenodd" d="M360.822 354.343C363.445 354.877 365.418 357.946 365.23 361.199C365.043 364.453 362.766 366.655 360.143 366.122C357.521 365.588 355.548 362.519 355.736 359.265C355.923 356.012 358.2 353.81 360.822 354.343Z" fill="#FFDB59"/>
<path opacity="0.2" fill-rule="evenodd" clip-rule="evenodd" d="M317.583 331.042C318.308 326.087 322.081 323.898 326.01 326.162L384.419 359.101C388.345 361.364 390.945 367.225 390.221 372.179L382.45 425.056C381.725 430.011 377.948 432.197 374.023 429.936L315.614 396.997C311.685 394.734 309.088 388.873 309.812 383.919L317.583 331.042Z" fill="url(#paint10_linear_77_211)"/>
<path opacity="0.18" fill-rule="evenodd" clip-rule="evenodd" d="M188.176 88.4837C189.751 76.8669 198.563 71.8638 207.857 77.3359L303.859 133.392C313.143 138.857 319.41 152.728 317.835 164.345L303.202 275.073C301.628 286.69 292.806 291.686 283.518 286.221L187.52 230.165C178.223 224.696 171.969 210.828 173.543 199.215L188.176 88.4837Z" fill="url(#paint11_linear_77_211)"/>
<path fill-rule="evenodd" clip-rule="evenodd" d="M191.582 87.8465C191.753 86.5917 191.999 80.9806 193.506 79.8389C195.536 78.2995 199.246 76.0583 200.342 75.7673C203.201 75.004 206.502 75.5053 209.869 77.4878L299.574 129.475C308.202 134.553 314.023 147.444 312.561 158.236L298.966 261.128C298.455 264.895 297.123 267.916 295.238 270.034C293.963 271.467 290.979 273.472 288.495 274.756C285.924 276.085 282.309 272.447 280.679 271.486L190.974 219.499C182.333 214.415 176.522 201.53 177.987 190.738L191.582 87.8465Z" fill="#D0E7FF"/>
<path fill-rule="evenodd" clip-rule="evenodd" d="M188.422 90.0523C189.884 79.257 198.072 74.6096 206.709 79.6936L295.913 131.781C304.541 136.859 310.362 149.75 308.9 160.542L295.305 263.434C293.844 274.226 285.643 278.87 277.015 273.792L187.814 221.705C179.173 216.621 173.362 203.736 174.827 192.944L188.422 90.0523Z" fill="white"/>
<path fill-rule="evenodd" clip-rule="evenodd" d="M188.422 90.0523C189.884 79.257 198.072 74.6096 206.709 79.6936L295.913 131.781C304.541 136.859 310.362 149.75 308.9 160.542L307.506 170.765L187.012 100.405L188.422 90.0523Z" fill="url(#paint12_linear_77_211)"/>
<path fill-rule="evenodd" clip-rule="evenodd" d="M202.764 90.4564C204.73 90.9221 206.231 93.2765 206.117 95.715C206.004 98.1535 204.319 99.7511 202.353 99.2854C200.387 98.8197 198.887 96.4653 199 94.0268C199.113 91.5883 200.798 89.9907 202.764 90.4564Z" fill="white"/>
<path fill-rule="evenodd" clip-rule="evenodd" d="M213.251 96.9956C215.217 97.4613 216.718 99.8157 216.605 102.254C216.491 104.693 214.807 106.29 212.84 105.825C210.874 105.359 209.374 103.005 209.487 100.566C209.6 98.1275 211.285 96.5267 213.251 96.9956Z" fill="white"/>
<path fill-rule="evenodd" clip-rule="evenodd" d="M223.738 103.532C225.705 103.997 227.205 106.352 227.092 108.79C226.979 111.229 225.294 112.826 223.328 112.361C221.362 111.895 219.861 109.541 219.974 107.102C220.087 104.664 221.772 103.066 223.738 103.532Z" fill="white"/>
<path opacity="0.2" fill-rule="evenodd" clip-rule="evenodd" d="M207.343 120.847C216.449 123.007 223.405 133.919 222.878 145.219C222.351 156.519 214.541 163.928 205.435 161.768C196.329 159.607 189.373 148.696 189.9 137.396C190.427 126.096 198.237 118.687 207.343 120.847Z" fill="#E6E6E6"/>
<path opacity="0.51" fill-rule="evenodd" clip-rule="evenodd" d="M206.906 130.274C211.815 131.438 215.566 137.321 215.282 143.414C214.997 149.507 210.787 153.501 205.878 152.337C200.969 151.173 197.218 145.29 197.502 139.197C197.784 133.107 201.994 129.11 206.906 130.274Z" fill="#FBB03B"/>
<path opacity="0.2" fill-rule="evenodd" clip-rule="evenodd" d="M228.356 142.774C228.683 140.374 230.5 139.368 232.415 140.533L290.72 174.144C292.634 175.309 293.925 178.203 293.601 180.603L292.971 185.35C292.644 187.75 290.827 188.756 288.912 187.592L230.607 153.98C228.689 152.816 227.402 149.921 227.726 147.522L228.356 142.774Z" fill="#FF931E"/>
<path opacity="0.2" fill-rule="evenodd" clip-rule="evenodd" d="M226.038 160.238C226.228 158.821 227.302 158.226 228.434 158.915L262.864 178.763C263.996 179.451 264.756 181.159 264.565 182.579L264.193 185.383C263.999 186.799 262.926 187.394 261.797 186.705L227.367 166.858C226.235 166.169 225.475 164.462 225.666 163.045L226.038 160.238Z" fill="#FF931E"/>
<path opacity="0.2" fill-rule="evenodd" clip-rule="evenodd" d="M187.119 164.691C187.355 162.945 188.678 162.211 190.075 163.061L290.768 220.834C292.162 221.682 293.103 223.79 292.867 225.54L292.553 227.83C292.317 229.579 290.991 230.31 289.598 229.46L188.904 171.686C187.507 170.839 186.569 168.73 186.805 166.981L187.119 164.691Z" fill="#FF931E"/>
<path opacity="0.2" fill-rule="evenodd" clip-rule="evenodd" d="M185.014 181.638C185.25 179.891 186.572 179.157 187.969 180.008L288.663 237.781C290.057 238.628 290.998 240.737 290.762 242.487L290.448 244.776C290.212 246.526 288.886 247.257 287.492 246.409L186.799 188.633C185.402 187.786 184.464 185.677 184.7 183.927L185.014 181.638Z" fill="#FF931E"/>
<path opacity="0.2" fill-rule="evenodd" clip-rule="evenodd" d="M182.808 197.779C183.044 196.033 184.367 195.298 185.764 196.149L286.458 253.922C287.851 254.77 288.792 256.878 288.556 258.628L288.243 260.918C288.007 262.667 286.681 263.398 285.287 262.551L184.593 204.774C183.196 203.927 182.258 201.818 182.494 200.069L182.808 197.779Z" fill="#FF931E"/>
<path fill-rule="evenodd" clip-rule="evenodd" d="M312.914 78.4775C313.234 76.2395 311.743 74.5125 312.716 73.0281C313.767 71.424 317.337 70.2759 318.883 69.7196C321.076 68.9305 323.653 69.186 326.279 70.6898L433.382 131.93C439.636 135.507 443.805 144.808 442.683 152.683L430.659 236.72C430.109 240.578 428.392 243.386 426.045 244.822C424.612 245.701 420.686 247.38 418.908 247.163C417.656 247.011 418.607 245.258 417.291 244.508L310.188 183.268C303.927 179.684 299.765 170.39 300.884 162.515L312.914 78.4775Z" fill="#D0E7FF"/>
<path fill-rule="evenodd" clip-rule="evenodd" d="M309.703 79.7581C310.825 71.8831 316.807 68.3903 323.068 71.9704L430.171 133.211C436.425 136.788 440.593 146.089 439.471 153.964L427.448 238.001C426.326 245.876 420.337 249.365 414.083 245.785L306.983 184.548C300.722 180.968 296.56 171.67 297.682 163.795L309.703 79.7581Z" fill="url(#paint13_linear_77_211)"/>
<path fill-rule="evenodd" clip-rule="evenodd" d="M301.388 167.647C301.485 166.965 302.003 166.67 302.546 166.997L421.333 235.113C421.873 235.44 422.235 236.258 422.138 236.94L421.824 239.013C421.727 239.696 421.21 239.987 420.667 239.663L301.877 171.551C301.337 171.224 300.974 170.406 301.071 169.723L301.388 167.647Z" fill="#F2F2F2"/>
<path fill-rule="evenodd" clip-rule="evenodd" d="M301.443 167.712C301.537 167.052 302.038 166.771 302.559 167.084L350.471 194.551C350.991 194.865 351.341 195.654 351.247 196.314L350.943 198.312C350.849 198.972 350.348 199.254 349.827 198.94L301.915 171.473C301.391 171.159 301.045 170.37 301.139 169.71L301.443 167.712Z" fill="#0071BC"/>
<path opacity="0.5" fill-rule="evenodd" clip-rule="evenodd" d="M348.405 127.276C348.673 125.404 350.096 124.573 351.583 125.423L384.555 144.284C386.043 145.135 387.035 147.347 386.767 149.223L382.317 180.6C382.049 182.472 380.626 183.303 379.135 182.453L346.164 163.592C344.673 162.738 343.683 160.526 343.952 158.653L348.405 127.276Z" fill="#F2F2F2"/>
<path fill-rule="evenodd" clip-rule="evenodd" d="M367.212 140.93C361.505 137.664 356.056 140.846 355.031 148.026C354.009 155.212 357.799 163.679 363.51 166.945C369.211 170.208 374.666 167.029 375.691 159.843C376.713 152.664 372.917 144.194 367.212 140.93Z" fill="url(#paint14_linear_77_211)"/>
<path fill-rule="evenodd" clip-rule="evenodd" d="M361.932 144.417L360.13 157.414L371.141 157.712L361.932 144.417Z" fill="white"/>
<defs>
<linearGradient id="paint0_linear_77_211" x1="295.565" y1="137.179" x2="250.755" y2="409.13" gradientUnits="userSpaceOnUse">
<stop stop-color="#D1E8FF"/>
<stop offset="1" stop-color="#EAEFFF"/>
</linearGradient>
<linearGradient id="paint1_linear_77_211" x1="321.571" y1="85.7122" x2="217.002" y2="420.66" gradientUnits="userSpaceOnUse">
<stop stop-color="#3B4FA5"/>
<stop offset="1" stop-color="#3FB0F7"/>
</linearGradient>
<linearGradient id="paint2_linear_77_211" x1="369.673" y1="304.55" x2="396.063" y2="249.053" gradientUnits="userSpaceOnUse">
<stop stop-color="#965CF2"/>
<stop offset="1" stop-color="#FF8ADC"/>
</linearGradient>
<linearGradient id="paint3_linear_77_211" x1="366.256" y1="206.386" x2="415.144" y2="134.979" gradientUnits="userSpaceOnUse">
<stop stop-color="#965CF2"/>
<stop offset="1" stop-color="#FF8ADC"/>
</linearGradient>
<linearGradient id="paint4_linear_77_211" x1="136.242" y1="279.183" x2="166.893" y2="212.336" gradientUnits="userSpaceOnUse">
<stop stop-color="#965CF2"/>
<stop offset="1" stop-color="#FF8ADC"/>
</linearGradient>
<linearGradient id="paint5_linear_77_211" x1="98.8932" y1="206.375" x2="86.751" y2="241.18" gradientUnits="userSpaceOnUse">
<stop stop-color="#1C8EF4"/>
<stop offset="1" stop-color="#00CFDD"/>
</linearGradient>
<linearGradient id="paint6_linear_77_211" x1="140.148" y1="109.686" x2="164.973" y2="26.6657" gradientUnits="userSpaceOnUse">
<stop stop-color="#965CF2"/>
<stop offset="1" stop-color="#FF8ADC"/>
</linearGradient>
<linearGradient id="paint7_linear_77_211" x1="133.023" y1="26.1027" x2="104.726" y2="119.04" gradientUnits="userSpaceOnUse">
<stop stop-color="#3B4FA5"/>
<stop offset="1" stop-color="#3FB0F7"/>
</linearGradient>
<linearGradient id="paint8_linear_77_211" x1="277.298" y1="321.992" x2="225.226" y2="324.228" gradientUnits="userSpaceOnUse">
<stop stop-color="#00FFFF"/>
<stop offset="1" stop-color="#29ABE2"/>
</linearGradient>
<linearGradient id="paint9_linear_77_211" x1="348.7" y1="389.205" x2="358.309" y2="362.799" gradientUnits="userSpaceOnUse">
<stop stop-color="#965CF2"/>
<stop offset="1" stop-color="#FF8ADC"/>
</linearGradient>
<linearGradient id="paint10_linear_77_211" x1="351.197" y1="400.198" x2="347.687" y2="334.387" gradientUnits="userSpaceOnUse">
<stop stop-color="#965CF2"/>
<stop offset="1" stop-color="#FF8ADC"/>
</linearGradient>
<linearGradient id="paint11_linear_77_211" x1="260.333" y1="239.399" x2="213.218" y2="54.0702" gradientUnits="userSpaceOnUse">
<stop stop-color="#965CF2"/>
<stop offset="1" stop-color="#FF8ADC"/>
</linearGradient>
<linearGradient id="paint12_linear_77_211" x1="263.48" y1="106.476" x2="246.674" y2="130.368" gradientUnits="userSpaceOnUse">
<stop stop-color="#3B4FA5"/>
<stop offset="1" stop-color="#3FB0F7"/>
</linearGradient>
<linearGradient id="paint13_linear_77_211" x1="376.454" y1="132.623" x2="358.689" y2="191.832" gradientUnits="userSpaceOnUse">
<stop stop-color="#3B4FA5"/>
<stop offset="1" stop-color="#3FB0F7"/>
</linearGradient>
<linearGradient id="paint14_linear_77_211" x1="361.605" y1="160.335" x2="369.034" y2="147.683" gradientUnits="userSpaceOnUse">
<stop stop-color="#3B4FA5"/>
<stop offset="1" stop-color="#3FB0F7"/>
</linearGradient>
</defs>
</svg>
