<svg width="868" height="605" viewBox="0 0 868 605" fill="none" xmlns="http://www.w3.org/2000/svg">
<path d="M835.714 497.287C833.339 497.287 830.943 496.674 828.825 495.446L805.586 482.027C804.24 481.255 803.428 479.849 803.428 478.305C803.428 476.742 804.24 475.356 805.586 474.584L828.825 461.165C833.081 458.71 838.367 458.71 842.603 461.165L865.842 474.584C867.188 475.356 868 476.762 868 478.305C868 479.869 867.188 481.255 865.842 482.027L842.603 495.446C840.485 496.674 838.089 497.287 835.714 497.287ZM835.714 463.005C833.972 463.005 832.23 463.461 830.666 464.351L807.427 477.771C807.15 477.929 807.11 478.167 807.11 478.305C807.11 478.444 807.15 478.682 807.427 478.84L830.666 492.26C833.774 494.061 837.654 494.061 840.762 492.26L864.001 478.84C864.278 478.682 864.318 478.444 864.318 478.305C864.318 478.167 864.278 477.929 864.001 477.771L840.762 464.351C839.198 463.461 837.456 463.005 835.714 463.005Z" fill="url(#paint0_radial_77_210)"/>
<path d="M769.261 421.182C765.381 421.182 761.521 420.192 758.057 418.193L718.071 395.114C716.171 394.026 715.022 392.046 715.022 389.849C715.022 387.652 716.151 385.693 718.071 384.584L758.057 361.505C764.966 357.527 773.537 357.507 780.446 361.505L820.432 384.584C822.332 385.673 823.48 387.652 823.48 389.849C823.48 392.046 822.352 394.006 820.452 395.114L780.465 418.193C777.001 420.192 773.141 421.182 769.261 421.182ZM759.918 415.006C765.698 418.332 772.864 418.332 778.625 415.006L818.611 391.927C819.68 391.294 819.799 390.265 819.799 389.849C819.799 389.434 819.68 388.404 818.611 387.771L778.625 364.692C772.844 361.367 765.678 361.367 759.918 364.692L719.932 387.771C718.863 388.404 718.744 389.434 718.744 389.849C718.744 390.265 718.863 391.294 719.932 391.927L759.918 415.006Z" fill="url(#paint1_radial_77_210)"/>
<path d="M54.2191 457.503C50.3392 457.503 46.4791 456.513 43.015 454.514L3.02867 431.435C1.12833 430.326 0 428.367 0 426.17C0 423.973 1.12833 422.013 3.04846 420.905L43.0348 397.826C49.9433 393.828 58.5146 393.828 65.4232 397.826L105.409 420.905C107.31 421.993 108.458 423.973 108.458 426.17C108.458 428.367 107.33 430.326 105.409 431.435L65.4232 454.514C61.959 456.513 58.0791 457.503 54.2191 457.503ZM54.2191 398.519C50.9925 398.519 47.746 399.35 44.8559 401.013L4.86962 424.092C3.80068 424.725 3.68191 425.754 3.68191 426.17C3.68191 426.586 3.80068 427.615 4.86962 428.248L44.8559 451.327C50.6361 454.652 57.802 454.652 63.5624 451.327L103.549 428.248C104.637 427.615 104.736 426.586 104.736 426.17C104.736 425.754 104.618 424.725 103.549 424.092L63.5624 401.013C60.6921 399.35 57.4457 398.519 54.2191 398.519Z" fill="url(#paint2_radial_77_210)"/>
<g opacity="0.3" filter="url(#filter0_f_77_210)">
<path d="M459.13 558.211L173.208 393.155C169.031 390.74 169.566 386.544 174.376 383.773L357.878 277.839C362.688 275.068 369.973 274.751 374.13 277.166L660.032 442.222C664.209 444.637 663.674 448.833 658.864 451.604L475.362 557.538C470.572 560.309 463.287 560.606 459.13 558.211Z" fill="#020230"/>
</g>
<path d="M465.663 588C462.317 588 459.11 587.307 456.675 585.882L130.371 397.529C127.699 395.985 126.234 393.768 126.234 391.274C126.234 388.404 128.233 385.613 131.698 383.614L354.117 253.315C360.213 249.792 369.181 249.455 374.525 252.543L700.83 440.916C703.502 442.46 704.967 444.677 704.967 447.171C704.967 450.041 702.967 452.812 699.503 454.831L477.084 585.13C473.779 587.03 469.622 588 465.663 588ZM365.578 254.126C362.233 254.126 358.689 254.938 355.977 256.502L133.558 386.801C131.282 388.127 129.936 389.79 129.936 391.274C129.936 392.699 131.183 393.729 132.232 394.322L458.536 582.695C462.693 585.11 470.354 584.754 475.243 581.923L697.662 451.624C699.939 450.298 701.285 448.635 701.285 447.151C701.285 445.726 700.038 444.696 698.989 444.103L372.704 255.73C370.843 254.661 368.29 254.126 365.578 254.126Z" fill="url(#paint3_radial_77_210)"/>
<path d="M735.986 165.512L451.212 1.10846C449.252 -0.0197571 447.213 -0.257277 445.392 0.277143H445.372L440.107 2.11792L441.968 2.55337C441.215 3.44407 440.622 4.53271 440.226 5.81927L375.832 214.896C374.228 220.082 376.564 226.376 381.058 228.969L665.832 393.372C666.524 393.768 667.217 394.045 667.93 394.223L667.217 395.767L672.245 394.006H672.225C674.284 393.194 675.987 391.334 676.798 388.681L741.192 179.605C742.815 174.399 740.479 168.085 735.986 165.512Z" fill="url(#paint4_radial_77_210)"/>
<path d="M655.617 401.171L655.716 401.29L374.426 238.905C370.289 236.51 363.064 236.807 358.273 239.578L176.534 344.503L170.476 342.187L172.179 350.678C172.396 351.965 173.307 353.152 174.91 354.083L458.793 517.971C462.931 520.366 470.156 520.069 474.946 517.298L657.141 412.117C659.398 410.81 660.685 409.207 661.002 407.624L661.021 407.643L662.763 399.37L655.617 401.171Z" fill="url(#paint5_radial_77_210)"/>
<path d="M459.13 510.489L173.208 345.433C169.031 343.018 169.566 338.822 174.376 336.051L357.878 230.117C362.688 227.346 369.973 227.029 374.13 229.444L660.032 394.501C664.209 396.915 663.674 401.112 658.864 403.883L475.362 509.816C470.572 512.587 463.287 512.884 459.13 510.489Z" fill="url(#paint6_radial_77_210)"/>
<path d="M658.884 401.646L475.382 507.58C470.572 510.351 463.287 510.668 459.13 508.253L173.208 343.196C171.783 342.385 170.951 341.336 170.615 340.227C170.061 342.147 170.872 344.067 173.208 345.413L459.11 510.47C463.287 512.884 470.552 512.568 475.362 509.797L658.864 403.863C662.031 402.022 663.298 399.587 662.625 397.45C662.209 398.954 660.982 400.439 658.884 401.646Z" fill="white"/>
<g opacity="0.4">
<path opacity="0.4" d="M309.597 318.653L299.937 313.071C299.165 312.616 299.264 311.844 300.155 311.329L311.557 304.758C312.448 304.243 313.813 304.184 314.586 304.639L324.246 310.221C325.018 310.676 324.919 311.448 324.028 311.962L312.626 318.534C311.715 319.029 310.369 319.088 309.597 318.653Z" fill="#06033E"/>
<path opacity="0.4" d="M324.503 327.243L314.843 321.661C314.071 321.206 314.17 320.434 315.061 319.919L326.463 313.348C327.353 312.833 328.719 312.774 329.491 313.229L339.151 318.811C339.923 319.266 339.824 320.038 338.934 320.553L327.532 327.124C326.621 327.639 325.275 327.698 324.503 327.243Z" fill="#06033E"/>
<path opacity="0.4" d="M339.409 335.853L329.749 330.271C328.977 329.816 329.076 329.044 329.966 328.529L341.368 321.958C342.259 321.443 343.625 321.384 344.397 321.839L354.057 327.421C354.829 327.876 354.73 328.648 353.839 329.163L342.437 335.734C341.527 336.249 340.181 336.308 339.409 335.853Z" fill="#06033E"/>
<path opacity="0.4" d="M360.016 328.747L350.356 323.166C349.584 322.71 349.682 321.938 350.573 321.424L360.134 315.901C361.025 315.387 362.391 315.327 363.163 315.783L372.823 321.364C373.595 321.82 373.496 322.592 372.605 323.106L363.044 328.629C362.153 329.143 360.788 329.203 360.016 328.747Z" fill="#06033E"/>
<path opacity="0.4" d="M374.921 337.357L365.261 331.776C364.489 331.32 364.588 330.549 365.479 330.034L375.04 324.512C375.931 323.997 377.297 323.938 378.069 324.393L387.729 329.975C388.501 330.43 388.402 331.202 387.511 331.716L377.95 337.239C377.059 337.753 375.693 337.813 374.921 337.357Z" fill="#06033E"/>
<path opacity="0.4" d="M389.827 345.967L380.167 340.386C379.395 339.93 379.494 339.158 380.385 338.644L389.946 333.121C390.837 332.607 392.203 332.547 392.975 333.003L402.635 338.584C403.407 339.04 403.308 339.812 402.417 340.326L392.856 345.849C391.965 346.343 390.599 346.403 389.827 345.967Z" fill="#06033E"/>
<path opacity="0.4" d="M404.733 354.558L395.073 348.976C394.301 348.521 394.4 347.749 395.291 347.234L404.852 341.712C405.742 341.197 407.108 341.138 407.88 341.593L417.54 347.175C418.312 347.63 418.213 348.402 417.323 348.917L407.762 354.439C406.871 354.954 405.505 355.013 404.733 354.558Z" fill="#06033E"/>
<path opacity="0.4" d="M419.639 363.168L409.979 357.586C409.207 357.131 409.306 356.359 410.196 355.844L419.757 350.322C420.648 349.807 422.014 349.748 422.786 350.203L432.446 355.785C433.218 356.24 433.119 357.012 432.228 357.527L422.667 363.049C421.777 363.564 420.411 363.623 419.639 363.168Z" fill="#06033E"/>
<path opacity="0.4" d="M434.544 371.778L424.884 366.196C424.112 365.741 424.211 364.969 425.102 364.454L434.663 358.932C435.554 358.417 436.92 358.358 437.692 358.813L447.352 364.395C448.124 364.85 448.025 365.622 447.134 366.137L437.573 371.659C436.682 372.174 435.316 372.233 434.544 371.778Z" fill="#06033E"/>
<path opacity="0.4" d="M449.45 380.388L439.79 374.806C439.018 374.351 439.117 373.579 440.008 373.064L449.569 367.542C450.46 367.027 451.826 366.968 452.598 367.423L462.258 373.005C463.03 373.46 462.931 374.232 462.04 374.747L452.479 380.269C451.588 380.784 450.222 380.823 449.45 380.388Z" fill="#06033E"/>
<path opacity="0.4" d="M464.356 388.978L454.696 383.397C453.924 382.941 454.023 382.169 454.914 381.655L464.475 376.132C465.366 375.618 466.732 375.558 467.504 376.014L477.164 381.595C477.936 382.051 477.837 382.823 476.946 383.337L467.385 388.86C466.494 389.374 465.128 389.434 464.356 388.978Z" fill="#06033E"/>
<path opacity="0.4" d="M479.262 397.588L469.602 392.007C468.83 391.551 468.929 390.779 469.82 390.265L479.381 384.743C480.271 384.228 481.637 384.169 482.409 384.624L492.069 390.205C492.841 390.661 492.742 391.433 491.852 391.947L482.291 397.47C481.4 397.984 480.054 398.044 479.262 397.588Z" fill="#06033E"/>
<path opacity="0.4" d="M494.168 406.199L484.508 400.617C483.736 400.162 483.835 399.39 484.725 398.875L494.286 393.353C495.177 392.838 496.543 392.779 497.315 393.234L506.975 398.816C507.747 399.271 507.648 400.043 506.757 400.557L497.196 406.08C496.306 406.594 494.959 406.654 494.168 406.199Z" fill="#06033E"/>
<path opacity="0.4" d="M381.988 324.67L372.328 319.088C371.556 318.633 371.655 317.861 372.546 317.346L382.107 311.824C382.998 311.309 384.364 311.25 385.136 311.705L394.796 317.287C395.568 317.742 395.469 318.514 394.578 319.029L385.017 324.551C384.106 325.066 382.76 325.125 381.988 324.67Z" fill="#06033E"/>
<path opacity="0.4" d="M366.845 315.941L357.185 310.359C356.413 309.904 356.512 309.132 357.403 308.617L366.964 303.095C367.854 302.58 369.22 302.521 369.992 302.976L379.652 308.558C380.424 309.013 380.325 309.785 379.435 310.3L369.874 315.822C368.983 316.337 367.637 316.396 366.845 315.941Z" fill="#06033E"/>
<path opacity="0.4" d="M351.702 307.192L330.917 295.198C330.145 294.742 330.244 293.97 331.134 293.456L340.695 287.933C341.586 287.419 342.952 287.359 343.724 287.815L364.509 299.809C365.281 300.265 365.182 301.037 364.291 301.551L354.73 307.074C353.82 307.588 352.474 307.648 351.702 307.192Z" fill="#06033E"/>
<path opacity="0.4" d="M362.292 296.563L345.427 286.825C344.655 286.37 344.754 285.598 345.644 285.083L355.205 279.561C356.096 279.046 357.462 278.987 358.234 279.442L375.1 289.18C375.872 289.636 375.773 290.408 374.882 290.922L365.321 296.445C364.43 296.939 363.064 296.999 362.292 296.563Z" fill="#06033E"/>
<path opacity="0.4" d="M396.894 333.28L387.234 327.698C386.462 327.243 386.561 326.471 387.452 325.956L397.013 320.434C397.904 319.919 399.269 319.86 400.041 320.315L409.702 325.897C410.474 326.352 410.375 327.124 409.484 327.639L399.923 333.161C399.012 333.676 397.666 333.735 396.894 333.28Z" fill="#06033E"/>
<path opacity="0.4" d="M411.8 341.89L402.14 336.308C401.368 335.853 401.467 335.081 402.357 334.566L411.919 329.044C412.809 328.529 414.175 328.47 414.947 328.925L424.607 334.507C425.379 334.962 425.28 335.734 424.39 336.249L414.828 341.771C413.918 342.286 412.572 342.325 411.8 341.89Z" fill="#06033E"/>
<path opacity="0.4" d="M426.706 350.5L417.045 344.918C416.273 344.463 416.372 343.691 417.263 343.177L426.824 337.654C427.715 337.14 429.081 337.08 429.853 337.535L439.513 343.117C440.285 343.572 440.186 344.344 439.295 344.859L429.734 350.381C428.824 350.876 427.478 350.936 426.706 350.5Z" fill="#06033E"/>
<path opacity="0.4" d="M441.611 359.09L431.951 353.509C431.179 353.053 431.278 352.281 432.169 351.767L441.73 346.244C442.621 345.73 443.987 345.67 444.759 346.126L454.419 351.707C455.191 352.163 455.092 352.935 454.201 353.449L444.64 358.972C443.729 359.486 442.383 359.546 441.611 359.09Z" fill="#06033E"/>
<path opacity="0.4" d="M456.517 367.7L446.857 362.119C446.085 361.664 446.184 360.892 447.075 360.377L456.636 354.855C457.527 354.34 458.892 354.281 459.664 354.736L469.325 360.318C470.097 360.773 469.998 361.545 469.107 362.059L459.546 367.582C458.635 368.096 457.289 368.156 456.517 367.7Z" fill="#06033E"/>
<path opacity="0.4" d="M471.423 376.311L461.763 370.729C460.991 370.274 461.09 369.502 461.981 368.987L471.542 363.465C472.432 362.95 473.798 362.891 474.57 363.346L484.23 368.928C485.002 369.383 484.903 370.155 484.013 370.669L474.451 376.192C473.541 376.706 472.195 376.766 471.423 376.311Z" fill="#06033E"/>
<path opacity="0.4" d="M486.329 384.921L476.669 379.339C475.897 378.884 475.996 378.112 476.887 377.597L486.448 372.075C487.338 371.56 488.704 371.501 489.476 371.956L499.136 377.538C499.908 377.993 499.809 378.765 498.919 379.28L489.358 384.802C488.447 385.297 487.101 385.356 486.329 384.921Z" fill="#06033E"/>
<path opacity="0.4" d="M501.235 393.511L491.575 387.929C490.803 387.474 490.901 386.702 491.792 386.187L501.353 380.665C502.244 380.151 503.61 380.091 504.382 380.546L514.042 386.128C514.814 386.583 514.715 387.355 513.824 387.87L504.263 393.392C503.353 393.907 502.007 393.966 501.235 393.511Z" fill="#06033E"/>
<path opacity="0.4" d="M516.14 402.121L506.48 396.539C505.708 396.084 505.807 395.312 506.698 394.798L516.259 389.275C517.15 388.761 518.516 388.701 519.288 389.157L528.948 394.738C529.72 395.193 529.621 395.965 528.73 396.48L519.169 402.002C518.258 402.517 516.912 402.576 516.14 402.121Z" fill="#06033E"/>
<path opacity="0.4" d="M542.646 417.421L521.584 405.268C520.812 404.813 520.911 404.041 521.802 403.526L531.363 398.004C532.254 397.489 533.62 397.43 534.392 397.885L555.454 410.038C556.226 410.494 556.127 411.266 555.236 411.78L545.675 417.302C544.764 417.817 543.418 417.876 542.646 417.421Z" fill="#06033E"/>
<path opacity="0.4" d="M571.666 400.676L553.89 390.423C553.118 389.968 553.217 389.196 554.107 388.681L563.669 383.159C564.559 382.644 565.925 382.585 566.697 383.04L584.473 393.293C585.245 393.748 585.146 394.52 584.256 395.035L574.694 400.557C573.784 401.052 572.438 401.112 571.666 400.676Z" fill="#06033E"/>
<path opacity="0.4" d="M422.984 331.597L413.324 326.016C412.552 325.561 412.651 324.789 413.542 324.274L423.103 318.752C423.994 318.237 425.36 318.178 426.132 318.633L435.792 324.215C436.564 324.67 436.465 325.442 435.574 325.956L426.013 331.479C425.122 331.993 423.776 332.053 422.984 331.597Z" fill="#06033E"/>
<path opacity="0.4" d="M407.722 322.77L398.062 317.188C397.29 316.733 397.389 315.961 398.28 315.446L407.841 309.924C408.731 309.409 410.097 309.35 410.869 309.805L420.529 315.387C421.301 315.842 421.202 316.614 420.312 317.128L410.751 322.651C409.84 323.165 408.494 323.225 407.722 322.77Z" fill="#06033E"/>
<path opacity="0.4" d="M392.44 313.962L382.78 308.38C382.008 307.925 382.107 307.153 382.998 306.638L392.559 301.116C393.45 300.601 394.816 300.542 395.588 300.997L405.248 306.579C406.02 307.034 405.921 307.806 405.03 308.321L395.469 313.843C394.558 314.358 393.212 314.397 392.44 313.962Z" fill="#06033E"/>
<path opacity="0.4" d="M377.158 305.134L367.498 299.552C366.726 299.097 366.825 298.325 367.716 297.81L377.277 292.288C378.168 291.773 379.534 291.714 380.306 292.169L389.966 297.751C390.738 298.206 390.639 298.978 389.748 299.493L380.187 305.015C379.296 305.53 377.93 305.589 377.158 305.134Z" fill="#06033E"/>
<path opacity="0.4" d="M437.89 340.208L428.23 334.626C427.458 334.171 427.557 333.399 428.448 332.884L438.009 327.362C438.899 326.847 440.265 326.788 441.037 327.243L450.697 332.825C451.469 333.28 451.37 334.052 450.48 334.566L440.919 340.089C440.028 340.603 438.682 340.643 437.89 340.208Z" fill="#06033E"/>
<path opacity="0.4" d="M452.796 348.818L443.136 343.236C442.364 342.781 442.463 342.009 443.353 341.494L452.914 335.972C453.805 335.457 455.171 335.398 455.943 335.853L465.603 341.435C466.375 341.89 466.276 342.662 465.385 343.177L455.824 348.699C454.934 349.194 453.587 349.253 452.796 348.818Z" fill="#06033E"/>
<path opacity="0.4" d="M467.721 357.408L458.061 351.826C457.289 351.371 457.388 350.599 458.279 350.084L467.84 344.562C468.731 344.048 470.097 343.988 470.869 344.443L480.529 350.025C481.301 350.48 481.202 351.252 480.311 351.767L470.75 357.289C469.839 357.804 468.493 357.863 467.721 357.408Z" fill="#06033E"/>
<path opacity="0.4" d="M482.627 366.018L472.967 360.436C472.195 359.981 472.294 359.209 473.185 358.695L482.746 353.172C483.636 352.658 485.002 352.598 485.774 353.053L495.434 358.635C496.206 359.09 496.107 359.862 495.217 360.377L485.656 365.899C484.745 366.414 483.399 366.473 482.627 366.018Z" fill="#06033E"/>
<path opacity="0.4" d="M497.533 374.628L487.873 369.046C487.101 368.591 487.2 367.819 488.091 367.305L497.652 361.782C498.542 361.268 499.908 361.208 500.68 361.664L510.34 367.245C511.112 367.701 511.013 368.472 510.123 368.987L500.562 374.509C499.651 375.024 498.305 375.064 497.533 374.628Z" fill="#06033E"/>
<path opacity="0.4" d="M512.439 383.238L502.779 377.657C502.007 377.201 502.106 376.429 502.996 375.915L512.557 370.392C513.448 369.878 514.814 369.818 515.586 370.274L525.246 375.855C526.018 376.311 525.919 377.083 525.028 377.597L515.467 383.12C514.557 383.614 513.211 383.674 512.439 383.238Z" fill="#06033E"/>
<path opacity="0.4" d="M527.344 391.829L517.684 386.247C516.912 385.792 517.011 385.02 517.902 384.505L527.463 378.983C528.354 378.468 529.72 378.409 530.492 378.864L540.152 384.446C540.924 384.901 540.825 385.673 539.934 386.188L530.373 391.71C529.463 392.224 528.116 392.284 527.344 391.829Z" fill="#06033E"/>
<path opacity="0.4" d="M542.25 400.439L532.59 394.857C531.818 394.402 531.917 393.63 532.808 393.115L542.369 387.593C543.26 387.078 544.626 387.019 545.398 387.474L555.058 393.056C555.83 393.511 555.731 394.283 554.84 394.798L545.279 400.32C544.368 400.835 543.022 400.894 542.25 400.439Z" fill="#06033E"/>
<path opacity="0.4" d="M557.156 409.049L547.496 403.467C546.724 403.012 546.823 402.24 547.714 401.725L557.275 396.203C558.165 395.688 559.531 395.629 560.303 396.084L569.963 401.666C570.735 402.121 570.636 402.893 569.746 403.408L560.185 408.93C559.274 409.445 557.928 409.484 557.156 409.049Z" fill="#06033E"/>
<path opacity="0.4" d="M415.145 310.32L405.485 304.738C404.713 304.283 404.812 303.511 405.703 302.996L415.264 297.474C416.155 296.959 417.521 296.9 418.293 297.355L427.953 302.937C428.725 303.392 428.626 304.164 427.735 304.679L418.174 310.201C417.263 310.696 415.917 310.755 415.145 310.32Z" fill="#06033E"/>
<path opacity="0.4" d="M400.319 301.749L390.659 296.168C389.886 295.712 389.985 294.94 390.876 294.426L400.437 288.903C401.328 288.389 402.694 288.329 403.466 288.785L413.126 294.366C413.898 294.822 413.799 295.594 412.908 296.108L403.347 301.631C402.437 302.145 401.091 302.205 400.319 301.749Z" fill="#06033E"/>
<path opacity="0.4" d="M385.472 293.179L375.812 287.597C375.04 287.142 375.139 286.37 376.03 285.855L385.591 280.333C386.482 279.818 387.848 279.759 388.62 280.214L398.28 285.796C399.052 286.251 398.953 287.023 398.062 287.538L388.501 293.06C387.61 293.575 386.264 293.634 385.472 293.179Z" fill="#06033E"/>
<path opacity="0.4" d="M370.645 284.628L360.985 279.046C360.213 278.591 360.312 277.819 361.203 277.304L370.764 271.782C371.655 271.267 373.021 271.208 373.793 271.663L383.453 277.245C384.225 277.7 384.126 278.472 383.235 278.987L373.674 284.509C372.783 285.024 371.418 285.063 370.645 284.628Z" fill="#06033E"/>
<path opacity="0.4" d="M385.908 275.82L376.248 270.238C375.476 269.783 375.575 269.011 376.465 268.496L379.633 266.675C380.523 266.161 381.889 266.101 382.661 266.557L392.321 272.138C393.093 272.594 392.994 273.366 392.104 273.88L388.936 275.701C388.026 276.216 386.68 276.275 385.908 275.82Z" fill="#06033E"/>
<path opacity="0.4" d="M405.248 287.003L395.587 281.421C394.815 280.966 394.914 280.194 395.805 279.68L398.972 277.859C399.863 277.344 401.229 277.285 402.001 277.74L411.661 283.322C412.433 283.777 412.334 284.549 411.443 285.063L408.276 286.884C407.385 287.379 406.039 287.439 405.248 287.003Z" fill="#06033E"/>
<path opacity="0.4" d="M420.035 295.514L410.375 289.933C409.603 289.477 409.702 288.705 410.592 288.191L413.76 286.37C414.65 285.855 416.016 285.796 416.788 286.251L426.448 291.833C427.22 292.288 427.121 293.06 426.231 293.575L423.063 295.396C422.153 295.91 420.807 295.97 420.035 295.514Z" fill="#06033E"/>
<path opacity="0.4" d="M434.802 304.045L425.142 298.464C424.37 298.008 424.469 297.236 425.359 296.722L428.527 294.901C429.417 294.386 430.783 294.327 431.555 294.782L441.215 300.364C441.987 300.819 441.888 301.591 440.998 302.106L437.83 303.926C436.92 304.441 435.574 304.5 434.802 304.045Z" fill="#06033E"/>
<path opacity="0.4" d="M449.569 312.576L439.909 306.994C439.137 306.539 439.236 305.767 440.127 305.252L443.294 303.432C444.185 302.917 445.551 302.858 446.323 303.313L455.983 308.894C456.755 309.35 456.656 310.122 455.765 310.636L452.598 312.457C451.687 312.972 450.341 313.031 449.569 312.576Z" fill="#06033E"/>
<path opacity="0.4" d="M532.036 360.179L522.376 354.597C521.604 354.142 521.703 353.37 522.594 352.856L525.761 351.035C526.652 350.52 528.017 350.461 528.789 350.916L538.45 356.498C539.222 356.953 539.123 357.725 538.232 358.239L535.065 360.06C534.154 360.575 532.808 360.634 532.036 360.179Z" fill="#06033E"/>
<path opacity="0.4" d="M546.803 368.71L537.143 363.128C536.371 362.673 536.47 361.901 537.361 361.386L540.528 359.565C541.419 359.051 542.785 358.991 543.557 359.447L553.217 365.028C553.989 365.483 553.89 366.255 552.999 366.77L549.832 368.591C548.921 369.106 547.575 369.145 546.803 368.71Z" fill="#06033E"/>
<path opacity="0.4" d="M561.57 377.241L551.91 371.659C551.138 371.204 551.237 370.432 552.128 369.917L555.295 368.096C556.186 367.582 557.552 367.522 558.324 367.978L567.984 373.559C568.756 374.014 568.657 374.786 567.766 375.301L564.599 377.122C563.688 377.617 562.342 377.676 561.57 377.241Z" fill="#06033E"/>
<path opacity="0.4" d="M576.338 385.752L566.678 380.17C565.906 379.715 566.005 378.943 566.895 378.429L570.063 376.608C570.953 376.093 572.319 376.034 573.091 376.489L582.751 382.07C583.523 382.526 583.424 383.298 582.534 383.812L579.366 385.633C578.475 386.148 577.11 386.207 576.338 385.752Z" fill="#06033E"/>
<path opacity="0.4" d="M430.051 318.91L420.391 313.328C419.619 312.873 419.718 312.101 420.609 311.586L430.17 306.064C431.061 305.549 432.426 305.49 433.198 305.945L442.858 311.527C443.631 311.982 443.532 312.754 442.641 313.269L433.08 318.791C432.169 319.306 430.823 319.365 430.051 318.91Z" fill="#06033E"/>
<path opacity="0.4" d="M444.957 327.52L435.297 321.938C434.525 321.483 434.624 320.711 435.514 320.197L445.076 314.674C445.966 314.16 447.332 314.1 448.104 314.555L457.764 320.137C458.536 320.592 458.437 321.364 457.547 321.879L447.985 327.401C447.095 327.916 445.729 327.975 444.957 327.52Z" fill="#06033E"/>
<path opacity="0.4" d="M459.863 336.13L450.202 330.548C449.43 330.093 449.529 329.321 450.42 328.807L459.981 323.284C460.872 322.77 462.238 322.71 463.01 323.166L472.67 328.747C473.442 329.202 473.343 329.974 472.452 330.489L462.891 336.011C462 336.526 460.635 336.585 459.863 336.13Z" fill="#06033E"/>
<path opacity="0.4" d="M474.768 344.74L465.108 339.159C464.336 338.703 464.435 337.931 465.326 337.417L474.887 331.894C475.778 331.38 477.144 331.32 477.916 331.776L487.576 337.357C488.348 337.813 488.249 338.585 487.358 339.099L477.797 344.622C476.906 345.116 475.54 345.176 474.768 344.74Z" fill="#06033E"/>
<path opacity="0.4" d="M489.674 353.331L480.014 347.749C479.242 347.294 479.341 346.522 480.232 346.007L489.793 340.485C490.684 339.97 492.049 339.911 492.821 340.366L502.482 345.948C503.254 346.403 503.155 347.175 502.264 347.69L492.703 353.212C491.812 353.726 490.446 353.786 489.674 353.331Z" fill="#06033E"/>
<path opacity="0.4" d="M504.58 361.941L494.92 356.359C494.148 355.904 494.247 355.132 495.137 354.617L504.699 349.095C505.589 348.58 506.955 348.521 507.727 348.976L517.387 354.558C518.159 355.013 518.06 355.785 517.17 356.3L507.608 361.822C506.718 362.337 505.352 362.396 504.58 361.941Z" fill="#06033E"/>
<path opacity="0.4" d="M519.486 370.551L509.825 364.969C509.053 364.514 509.152 363.742 510.043 363.227L519.604 357.705C520.495 357.19 521.861 357.131 522.633 357.586L532.293 363.168C533.065 363.623 532.966 364.395 532.075 364.91L522.514 370.432C521.623 370.947 520.258 371.006 519.486 370.551Z" fill="#06033E"/>
<path opacity="0.4" d="M534.392 379.161L524.731 373.579C523.959 373.124 524.058 372.352 524.949 371.837L534.51 366.315C535.401 365.8 536.767 365.741 537.539 366.196L547.199 371.778C547.971 372.233 547.872 373.005 546.981 373.52L537.42 379.042C536.529 379.557 535.164 379.596 534.392 379.161Z" fill="#06033E"/>
<path opacity="0.4" d="M549.297 387.771L539.637 382.189C538.865 381.734 538.964 380.962 539.855 380.448L549.416 374.925C550.307 374.411 551.673 374.351 552.445 374.806L562.105 380.388C562.877 380.843 562.778 381.615 561.887 382.13L552.326 387.652C551.435 388.147 550.069 388.207 549.297 387.771Z" fill="#06033E"/>
<path opacity="0.4" d="M344.832 319.979L316.407 303.57C315.635 303.115 315.734 302.343 316.624 301.828L326.185 296.306C327.076 295.791 328.442 295.732 329.214 296.187L357.64 312.596C358.412 313.051 358.313 313.823 357.422 314.338L347.861 319.86C346.951 320.375 345.604 320.434 344.832 319.979Z" fill="#06033E"/>
<path opacity="0.4" d="M527.958 425.695L499.532 409.286C498.76 408.831 498.859 408.059 499.75 407.544L509.311 402.022C510.202 401.507 511.568 401.448 512.34 401.903L540.765 418.312C541.537 418.767 541.438 419.539 540.548 420.054L530.987 425.576C530.076 426.091 528.73 426.15 527.958 425.695Z" fill="#06033E"/>
<path opacity="0.4" d="M468.335 410.296L458.675 404.714C457.903 404.259 458.002 403.487 458.893 402.972L470.295 396.401C471.185 395.886 472.551 395.827 473.323 396.282L482.983 401.864C483.755 402.319 483.656 403.091 482.766 403.606L471.364 410.177C470.473 410.692 469.127 410.751 468.335 410.296Z" fill="#06033E"/>
<path opacity="0.4" d="M360.095 347.808L344.654 338.901C343.882 338.446 343.981 337.674 344.872 337.159L356.274 330.588C357.165 330.073 358.531 330.014 359.303 330.469L374.743 339.376C375.515 339.831 375.416 340.603 374.525 341.118L363.123 347.689C362.213 348.184 360.867 348.244 360.095 347.808Z" fill="#06033E"/>
<path opacity="0.4" d="M453.983 402.002L438.543 393.095C437.771 392.64 437.87 391.868 438.761 391.353L450.163 384.782C451.054 384.267 452.419 384.208 453.192 384.663L468.632 393.57C469.404 394.026 469.305 394.798 468.414 395.312L457.012 401.884C456.101 402.398 454.755 402.458 453.983 402.002Z" fill="#06033E"/>
<path opacity="0.4" d="M381.592 360.219L366.152 351.312C365.38 350.856 365.479 350.084 366.37 349.57L377.772 342.998C378.663 342.484 380.029 342.424 380.801 342.88L396.241 351.787C397.013 352.242 396.914 353.014 396.023 353.528L384.621 360.1C383.73 360.614 382.384 360.674 381.592 360.219Z" fill="#06033E"/>
<path opacity="0.4" d="M380.899 342.919L448.005 381.675C448.837 382.15 448.837 382.941 448.005 383.416L436.385 390.126C435.554 390.601 434.208 390.601 433.377 390.126L366.271 351.391L380.899 342.919Z" fill="#06033E"/>
<path opacity="0.4" d="M510.004 425.893L520.753 432.108C521.386 432.484 521.307 433.118 520.575 433.533L515.923 436.225C515.19 436.641 514.082 436.7 513.448 436.324L502.699 430.109C502.066 429.733 502.145 429.099 502.878 428.684L507.529 425.992C508.262 425.576 509.37 425.537 510.004 425.893Z" fill="#06033E"/>
<path opacity="0.4" d="M494.979 417.223L505.728 423.438C506.361 423.814 506.282 424.448 505.55 424.864L500.898 427.555C500.166 427.971 499.057 428.03 498.424 427.654L487.675 421.439C487.041 421.063 487.12 420.43 487.853 420.014L492.505 417.322C493.237 416.907 494.346 416.847 494.979 417.223Z" fill="#06033E"/>
<path opacity="0.4" d="M480.073 408.613L490.822 414.829C491.456 415.205 491.376 415.838 490.644 416.254L485.992 418.946C485.26 419.361 484.151 419.421 483.518 419.045L472.769 412.829C472.136 412.453 472.215 411.82 472.947 411.404L477.599 408.712C478.331 408.297 479.44 408.257 480.073 408.613Z" fill="#06033E"/>
<path opacity="0.4" d="M503.214 412.473L513.963 418.688C514.596 419.064 514.517 419.698 513.785 420.113L509.133 422.805C508.4 423.221 507.292 423.28 506.658 422.904L495.91 416.689C495.276 416.313 495.355 415.68 496.088 415.264L500.74 412.572C501.452 412.156 502.561 412.097 503.214 412.473Z" fill="#06033E"/>
</g>
<g opacity="0.4">
<path opacity="0.4" d="M309.597 318.653L299.937 313.071C299.165 312.616 299.264 311.844 300.155 311.329L311.557 304.758C312.448 304.243 313.813 304.184 314.586 304.639L324.246 310.221C325.018 310.676 324.919 311.448 324.028 311.962L312.626 318.534C311.715 319.029 310.369 319.088 309.597 318.653Z" fill="#06033E"/>
<path opacity="0.4" d="M324.503 327.243L314.843 321.661C314.071 321.206 314.17 320.434 315.061 319.919L326.463 313.348C327.353 312.833 328.719 312.774 329.491 313.229L339.151 318.811C339.923 319.266 339.824 320.038 338.934 320.553L327.532 327.124C326.621 327.639 325.275 327.698 324.503 327.243Z" fill="#06033E"/>
<path opacity="0.4" d="M339.409 335.853L329.749 330.271C328.977 329.816 329.076 329.044 329.966 328.529L341.368 321.958C342.259 321.443 343.625 321.384 344.397 321.839L354.057 327.421C354.829 327.876 354.73 328.648 353.839 329.163L342.437 335.734C341.527 336.249 340.181 336.308 339.409 335.853Z" fill="#06033E"/>
<path opacity="0.4" d="M360.016 328.747L350.356 323.166C349.584 322.71 349.682 321.938 350.573 321.424L360.134 315.901C361.025 315.387 362.391 315.327 363.163 315.783L372.823 321.364C373.595 321.82 373.496 322.592 372.605 323.106L363.044 328.629C362.153 329.143 360.788 329.203 360.016 328.747Z" fill="#06033E"/>
<path opacity="0.4" d="M374.921 337.357L365.261 331.776C364.489 331.32 364.588 330.549 365.479 330.034L375.04 324.512C375.931 323.997 377.297 323.938 378.069 324.393L387.729 329.975C388.501 330.43 388.402 331.202 387.511 331.716L377.95 337.239C377.059 337.753 375.693 337.813 374.921 337.357Z" fill="#06033E"/>
<path opacity="0.4" d="M389.827 345.967L380.167 340.386C379.395 339.93 379.494 339.158 380.385 338.644L389.946 333.121C390.837 332.607 392.203 332.547 392.975 333.003L402.635 338.584C403.407 339.04 403.308 339.812 402.417 340.326L392.856 345.849C391.965 346.343 390.599 346.403 389.827 345.967Z" fill="#06033E"/>
<path opacity="0.4" d="M404.733 354.558L395.073 348.976C394.301 348.521 394.4 347.749 395.291 347.234L404.852 341.712C405.742 341.197 407.108 341.138 407.88 341.593L417.54 347.175C418.312 347.63 418.213 348.402 417.323 348.917L407.762 354.439C406.871 354.954 405.505 355.013 404.733 354.558Z" fill="#06033E"/>
<path opacity="0.4" d="M419.639 363.168L409.979 357.586C409.207 357.131 409.306 356.359 410.196 355.844L419.757 350.322C420.648 349.807 422.014 349.748 422.786 350.203L432.446 355.785C433.218 356.24 433.119 357.012 432.228 357.527L422.667 363.049C421.777 363.564 420.411 363.623 419.639 363.168Z" fill="#06033E"/>
<path opacity="0.4" d="M434.544 371.778L424.884 366.196C424.112 365.741 424.211 364.969 425.102 364.454L434.663 358.932C435.554 358.417 436.92 358.358 437.692 358.813L447.352 364.395C448.124 364.85 448.025 365.622 447.134 366.137L437.573 371.659C436.682 372.174 435.316 372.233 434.544 371.778Z" fill="#06033E"/>
<path opacity="0.4" d="M449.45 380.388L439.79 374.806C439.018 374.351 439.117 373.579 440.008 373.064L449.569 367.542C450.46 367.027 451.826 366.968 452.598 367.423L462.258 373.005C463.03 373.46 462.931 374.232 462.04 374.747L452.479 380.269C451.588 380.784 450.222 380.823 449.45 380.388Z" fill="#06033E"/>
<path opacity="0.4" d="M464.356 388.978L454.696 383.397C453.924 382.941 454.023 382.169 454.914 381.655L464.475 376.132C465.366 375.618 466.732 375.558 467.504 376.014L477.164 381.595C477.936 382.051 477.837 382.823 476.946 383.337L467.385 388.86C466.494 389.374 465.128 389.434 464.356 388.978Z" fill="#06033E"/>
<path opacity="0.4" d="M479.262 397.588L469.602 392.007C468.83 391.551 468.929 390.779 469.82 390.265L479.381 384.743C480.271 384.228 481.637 384.169 482.409 384.624L492.069 390.205C492.841 390.661 492.742 391.433 491.852 391.947L482.291 397.47C481.4 397.984 480.054 398.044 479.262 397.588Z" fill="#06033E"/>
<path opacity="0.4" d="M494.168 406.199L484.508 400.617C483.736 400.162 483.835 399.39 484.725 398.875L494.286 393.353C495.177 392.838 496.543 392.779 497.315 393.234L506.975 398.816C507.747 399.271 507.648 400.043 506.757 400.557L497.196 406.08C496.306 406.594 494.959 406.654 494.168 406.199Z" fill="#06033E"/>
<path opacity="0.4" d="M381.988 324.67L372.328 319.088C371.556 318.633 371.655 317.861 372.546 317.346L382.107 311.824C382.998 311.309 384.364 311.25 385.136 311.705L394.796 317.287C395.568 317.742 395.469 318.514 394.578 319.029L385.017 324.551C384.106 325.066 382.76 325.125 381.988 324.67Z" fill="#06033E"/>
<path opacity="0.4" d="M366.845 315.941L357.185 310.359C356.413 309.904 356.512 309.132 357.403 308.617L366.964 303.095C367.854 302.58 369.22 302.521 369.992 302.976L379.652 308.558C380.424 309.013 380.325 309.785 379.435 310.3L369.874 315.822C368.983 316.337 367.637 316.396 366.845 315.941Z" fill="#06033E"/>
<path opacity="0.4" d="M351.702 307.192L330.917 295.198C330.145 294.742 330.244 293.97 331.134 293.456L340.695 287.933C341.586 287.419 342.952 287.359 343.724 287.815L364.509 299.809C365.281 300.265 365.182 301.037 364.291 301.551L354.73 307.074C353.82 307.588 352.474 307.648 351.702 307.192Z" fill="#06033E"/>
<path opacity="0.4" d="M362.292 296.563L345.427 286.825C344.655 286.37 344.754 285.598 345.644 285.083L355.205 279.561C356.096 279.046 357.462 278.987 358.234 279.442L375.1 289.18C375.872 289.636 375.773 290.408 374.882 290.922L365.321 296.445C364.43 296.939 363.064 296.999 362.292 296.563Z" fill="#06033E"/>
<path opacity="0.4" d="M396.894 333.28L387.234 327.698C386.462 327.243 386.561 326.471 387.452 325.956L397.013 320.434C397.904 319.919 399.269 319.86 400.041 320.315L409.702 325.897C410.474 326.352 410.375 327.124 409.484 327.639L399.923 333.161C399.012 333.676 397.666 333.735 396.894 333.28Z" fill="#06033E"/>
<path opacity="0.4" d="M411.8 341.89L402.14 336.308C401.368 335.853 401.467 335.081 402.357 334.566L411.919 329.044C412.809 328.529 414.175 328.47 414.947 328.925L424.607 334.507C425.379 334.962 425.28 335.734 424.39 336.249L414.828 341.771C413.918 342.286 412.572 342.325 411.8 341.89Z" fill="#06033E"/>
<path opacity="0.4" d="M426.706 350.5L417.045 344.918C416.273 344.463 416.372 343.691 417.263 343.177L426.824 337.654C427.715 337.14 429.081 337.08 429.853 337.535L439.513 343.117C440.285 343.572 440.186 344.344 439.295 344.859L429.734 350.381C428.824 350.876 427.478 350.936 426.706 350.5Z" fill="#06033E"/>
<path opacity="0.4" d="M441.611 359.09L431.951 353.509C431.179 353.053 431.278 352.281 432.169 351.767L441.73 346.244C442.621 345.73 443.987 345.67 444.759 346.126L454.419 351.707C455.191 352.163 455.092 352.935 454.201 353.449L444.64 358.972C443.729 359.486 442.383 359.546 441.611 359.09Z" fill="#06033E"/>
<path opacity="0.4" d="M456.517 367.7L446.857 362.119C446.085 361.664 446.184 360.892 447.075 360.377L456.636 354.855C457.527 354.34 458.892 354.281 459.664 354.736L469.325 360.318C470.097 360.773 469.998 361.545 469.107 362.059L459.546 367.582C458.635 368.096 457.289 368.156 456.517 367.7Z" fill="#06033E"/>
<path opacity="0.4" d="M471.423 376.311L461.763 370.729C460.991 370.274 461.09 369.502 461.981 368.987L471.542 363.465C472.432 362.95 473.798 362.891 474.57 363.346L484.23 368.928C485.002 369.383 484.903 370.155 484.013 370.669L474.451 376.192C473.541 376.706 472.195 376.766 471.423 376.311Z" fill="#06033E"/>
<path opacity="0.4" d="M486.329 384.921L476.669 379.339C475.897 378.884 475.996 378.112 476.887 377.597L486.448 372.075C487.338 371.56 488.704 371.501 489.476 371.956L499.136 377.538C499.908 377.993 499.809 378.765 498.919 379.28L489.358 384.802C488.447 385.297 487.101 385.356 486.329 384.921Z" fill="#06033E"/>
<path opacity="0.4" d="M501.235 393.511L491.575 387.929C490.803 387.474 490.901 386.702 491.792 386.187L501.353 380.665C502.244 380.151 503.61 380.091 504.382 380.546L514.042 386.128C514.814 386.583 514.715 387.355 513.824 387.87L504.263 393.392C503.353 393.907 502.007 393.966 501.235 393.511Z" fill="#06033E"/>
<path opacity="0.4" d="M516.14 402.121L506.48 396.539C505.708 396.084 505.807 395.312 506.698 394.798L516.259 389.275C517.15 388.761 518.516 388.701 519.288 389.157L528.948 394.738C529.72 395.193 529.621 395.965 528.73 396.48L519.169 402.002C518.258 402.517 516.912 402.576 516.14 402.121Z" fill="#06033E"/>
<path opacity="0.4" d="M542.646 417.421L521.584 405.268C520.812 404.813 520.911 404.041 521.802 403.526L531.363 398.004C532.254 397.489 533.62 397.43 534.392 397.885L555.454 410.038C556.226 410.494 556.127 411.266 555.236 411.78L545.675 417.302C544.764 417.817 543.418 417.876 542.646 417.421Z" fill="#06033E"/>
<path opacity="0.4" d="M571.666 400.676L553.89 390.423C553.118 389.968 553.217 389.196 554.107 388.681L563.669 383.159C564.559 382.644 565.925 382.585 566.697 383.04L584.473 393.293C585.245 393.748 585.146 394.52 584.256 395.035L574.694 400.557C573.784 401.052 572.438 401.112 571.666 400.676Z" fill="#06033E"/>
<path opacity="0.4" d="M422.984 331.597L413.324 326.016C412.552 325.561 412.651 324.789 413.542 324.274L423.103 318.752C423.994 318.237 425.36 318.178 426.132 318.633L435.792 324.215C436.564 324.67 436.465 325.442 435.574 325.956L426.013 331.479C425.122 331.993 423.776 332.053 422.984 331.597Z" fill="#06033E"/>
<path opacity="0.4" d="M407.722 322.77L398.062 317.188C397.29 316.733 397.389 315.961 398.28 315.446L407.841 309.924C408.731 309.409 410.097 309.35 410.869 309.805L420.529 315.387C421.301 315.842 421.202 316.614 420.312 317.128L410.751 322.651C409.84 323.165 408.494 323.225 407.722 322.77Z" fill="#06033E"/>
<path opacity="0.4" d="M392.44 313.962L382.78 308.38C382.008 307.925 382.107 307.153 382.998 306.638L392.559 301.116C393.45 300.601 394.816 300.542 395.588 300.997L405.248 306.579C406.02 307.034 405.921 307.806 405.03 308.321L395.469 313.843C394.558 314.358 393.212 314.397 392.44 313.962Z" fill="#06033E"/>
<path opacity="0.4" d="M377.158 305.134L367.498 299.552C366.726 299.097 366.825 298.325 367.716 297.81L377.277 292.288C378.168 291.773 379.534 291.714 380.306 292.169L389.966 297.751C390.738 298.206 390.639 298.978 389.748 299.493L380.187 305.015C379.296 305.53 377.93 305.589 377.158 305.134Z" fill="#06033E"/>
<path opacity="0.4" d="M437.89 340.208L428.23 334.626C427.458 334.171 427.557 333.399 428.448 332.884L438.009 327.362C438.899 326.847 440.265 326.788 441.037 327.243L450.697 332.825C451.469 333.28 451.37 334.052 450.48 334.566L440.919 340.089C440.028 340.603 438.682 340.643 437.89 340.208Z" fill="#06033E"/>
<path opacity="0.4" d="M452.796 348.818L443.136 343.236C442.364 342.781 442.463 342.009 443.353 341.494L452.914 335.972C453.805 335.457 455.171 335.398 455.943 335.853L465.603 341.435C466.375 341.89 466.276 342.662 465.385 343.177L455.824 348.699C454.934 349.194 453.587 349.253 452.796 348.818Z" fill="#06033E"/>
<path opacity="0.4" d="M467.721 357.408L458.061 351.826C457.289 351.371 457.388 350.599 458.279 350.084L467.84 344.562C468.731 344.048 470.097 343.988 470.869 344.443L480.529 350.025C481.301 350.48 481.202 351.252 480.311 351.767L470.75 357.289C469.839 357.804 468.493 357.863 467.721 357.408Z" fill="#06033E"/>
<path opacity="0.4" d="M482.627 366.018L472.967 360.436C472.195 359.981 472.294 359.209 473.185 358.695L482.746 353.172C483.636 352.658 485.002 352.598 485.774 353.053L495.434 358.635C496.206 359.09 496.107 359.862 495.217 360.377L485.656 365.899C484.745 366.414 483.399 366.473 482.627 366.018Z" fill="#06033E"/>
<path opacity="0.4" d="M497.533 374.628L487.873 369.046C487.101 368.591 487.2 367.819 488.091 367.305L497.652 361.782C498.542 361.268 499.908 361.208 500.68 361.664L510.34 367.245C511.112 367.701 511.013 368.472 510.123 368.987L500.562 374.509C499.651 375.024 498.305 375.064 497.533 374.628Z" fill="#06033E"/>
<path opacity="0.4" d="M512.439 383.238L502.779 377.657C502.007 377.201 502.106 376.429 502.996 375.915L512.557 370.392C513.448 369.878 514.814 369.818 515.586 370.274L525.246 375.855C526.018 376.311 525.919 377.083 525.028 377.597L515.467 383.12C514.557 383.614 513.211 383.674 512.439 383.238Z" fill="#06033E"/>
<path opacity="0.4" d="M527.344 391.829L517.684 386.247C516.912 385.792 517.011 385.02 517.902 384.505L527.463 378.983C528.354 378.468 529.72 378.409 530.492 378.864L540.152 384.446C540.924 384.901 540.825 385.673 539.934 386.188L530.373 391.71C529.463 392.224 528.116 392.284 527.344 391.829Z" fill="#06033E"/>
<path opacity="0.4" d="M542.25 400.439L532.59 394.857C531.818 394.402 531.917 393.63 532.808 393.115L542.369 387.593C543.26 387.078 544.626 387.019 545.398 387.474L555.058 393.056C555.83 393.511 555.731 394.283 554.84 394.798L545.279 400.32C544.368 400.835 543.022 400.894 542.25 400.439Z" fill="#06033E"/>
<path opacity="0.4" d="M557.156 409.049L547.496 403.467C546.724 403.012 546.823 402.24 547.714 401.725L557.275 396.203C558.165 395.688 559.531 395.629 560.303 396.084L569.963 401.666C570.735 402.121 570.636 402.893 569.746 403.408L560.185 408.93C559.274 409.445 557.928 409.484 557.156 409.049Z" fill="#06033E"/>
<path opacity="0.4" d="M415.145 310.32L405.485 304.738C404.713 304.283 404.812 303.511 405.703 302.996L415.264 297.474C416.155 296.959 417.521 296.9 418.293 297.355L427.953 302.937C428.725 303.392 428.626 304.164 427.735 304.679L418.174 310.201C417.263 310.696 415.917 310.755 415.145 310.32Z" fill="#06033E"/>
<path opacity="0.4" d="M400.319 301.749L390.659 296.168C389.886 295.712 389.985 294.94 390.876 294.426L400.437 288.903C401.328 288.389 402.694 288.329 403.466 288.785L413.126 294.366C413.898 294.822 413.799 295.594 412.908 296.108L403.347 301.631C402.437 302.145 401.091 302.205 400.319 301.749Z" fill="#06033E"/>
<path opacity="0.4" d="M385.472 293.179L375.812 287.597C375.04 287.142 375.139 286.37 376.03 285.855L385.591 280.333C386.482 279.818 387.848 279.759 388.62 280.214L398.28 285.796C399.052 286.251 398.953 287.023 398.062 287.538L388.501 293.06C387.61 293.575 386.264 293.634 385.472 293.179Z" fill="#06033E"/>
<path opacity="0.4" d="M370.645 284.628L360.985 279.046C360.213 278.591 360.312 277.819 361.203 277.304L370.764 271.782C371.655 271.267 373.021 271.208 373.793 271.663L383.453 277.245C384.225 277.7 384.126 278.472 383.235 278.987L373.674 284.509C372.783 285.024 371.418 285.063 370.645 284.628Z" fill="#06033E"/>
<path opacity="0.4" d="M385.908 275.82L376.248 270.238C375.476 269.783 375.575 269.011 376.465 268.496L379.633 266.675C380.523 266.161 381.889 266.101 382.661 266.557L392.321 272.138C393.093 272.594 392.994 273.366 392.104 273.88L388.936 275.701C388.026 276.216 386.68 276.275 385.908 275.82Z" fill="#06033E"/>
<path opacity="0.4" d="M405.248 287.003L395.587 281.421C394.815 280.966 394.914 280.194 395.805 279.68L398.972 277.859C399.863 277.344 401.229 277.285 402.001 277.74L411.661 283.322C412.433 283.777 412.334 284.549 411.443 285.063L408.276 286.884C407.385 287.379 406.039 287.439 405.248 287.003Z" fill="#06033E"/>
<path opacity="0.4" d="M420.035 295.514L410.375 289.933C409.603 289.477 409.702 288.705 410.592 288.191L413.76 286.37C414.65 285.855 416.016 285.796 416.788 286.251L426.448 291.833C427.22 292.288 427.121 293.06 426.231 293.575L423.063 295.396C422.153 295.91 420.807 295.97 420.035 295.514Z" fill="#06033E"/>
<path opacity="0.4" d="M434.802 304.045L425.142 298.464C424.37 298.008 424.469 297.236 425.359 296.722L428.527 294.901C429.417 294.386 430.783 294.327 431.555 294.782L441.215 300.364C441.987 300.819 441.888 301.591 440.998 302.106L437.83 303.926C436.92 304.441 435.574 304.5 434.802 304.045Z" fill="#06033E"/>
<path opacity="0.4" d="M449.569 312.576L439.909 306.994C439.137 306.539 439.236 305.767 440.127 305.252L443.294 303.432C444.185 302.917 445.551 302.858 446.323 303.313L455.983 308.894C456.755 309.35 456.656 310.122 455.765 310.636L452.598 312.457C451.687 312.972 450.341 313.031 449.569 312.576Z" fill="#06033E"/>
<path opacity="0.4" d="M532.036 360.179L522.376 354.597C521.604 354.142 521.703 353.37 522.594 352.856L525.761 351.035C526.652 350.52 528.017 350.461 528.789 350.916L538.45 356.498C539.222 356.953 539.123 357.725 538.232 358.239L535.065 360.06C534.154 360.575 532.808 360.634 532.036 360.179Z" fill="#06033E"/>
<path opacity="0.4" d="M546.803 368.71L537.143 363.128C536.371 362.673 536.47 361.901 537.361 361.386L540.528 359.565C541.419 359.051 542.785 358.991 543.557 359.447L553.217 365.028C553.989 365.483 553.89 366.255 552.999 366.77L549.832 368.591C548.921 369.106 547.575 369.145 546.803 368.71Z" fill="#06033E"/>
<path opacity="0.4" d="M561.57 377.241L551.91 371.659C551.138 371.204 551.237 370.432 552.128 369.917L555.295 368.096C556.186 367.582 557.552 367.522 558.324 367.978L567.984 373.559C568.756 374.014 568.657 374.786 567.766 375.301L564.599 377.122C563.688 377.617 562.342 377.676 561.57 377.241Z" fill="#06033E"/>
<path opacity="0.4" d="M576.338 385.752L566.678 380.17C565.906 379.715 566.005 378.943 566.895 378.429L570.063 376.608C570.953 376.093 572.319 376.034 573.091 376.489L582.751 382.07C583.523 382.526 583.424 383.298 582.534 383.812L579.366 385.633C578.475 386.148 577.11 386.207 576.338 385.752Z" fill="#06033E"/>
<path opacity="0.4" d="M430.051 318.91L420.391 313.328C419.619 312.873 419.718 312.101 420.609 311.586L430.17 306.064C431.061 305.549 432.426 305.49 433.198 305.945L442.858 311.527C443.631 311.982 443.532 312.754 442.641 313.269L433.08 318.791C432.169 319.306 430.823 319.365 430.051 318.91Z" fill="#06033E"/>
<path opacity="0.4" d="M444.957 327.52L435.297 321.938C434.525 321.483 434.624 320.711 435.514 320.197L445.076 314.674C445.966 314.16 447.332 314.1 448.104 314.555L457.764 320.137C458.536 320.592 458.437 321.364 457.547 321.879L447.985 327.401C447.095 327.916 445.729 327.975 444.957 327.52Z" fill="#06033E"/>
<path opacity="0.4" d="M459.863 336.13L450.202 330.548C449.43 330.093 449.529 329.321 450.42 328.807L459.981 323.284C460.872 322.77 462.238 322.71 463.01 323.166L472.67 328.747C473.442 329.202 473.343 329.974 472.452 330.489L462.891 336.011C462 336.526 460.635 336.585 459.863 336.13Z" fill="#06033E"/>
<path opacity="0.4" d="M474.768 344.74L465.108 339.159C464.336 338.703 464.435 337.931 465.326 337.417L474.887 331.894C475.778 331.38 477.144 331.32 477.916 331.776L487.576 337.357C488.348 337.813 488.249 338.585 487.358 339.099L477.797 344.622C476.906 345.116 475.54 345.176 474.768 344.74Z" fill="#06033E"/>
<path opacity="0.4" d="M489.674 353.331L480.014 347.749C479.242 347.294 479.341 346.522 480.232 346.007L489.793 340.485C490.684 339.97 492.049 339.911 492.821 340.366L502.482 345.948C503.254 346.403 503.155 347.175 502.264 347.69L492.703 353.212C491.812 353.726 490.446 353.786 489.674 353.331Z" fill="#06033E"/>
<path opacity="0.4" d="M504.58 361.941L494.92 356.359C494.148 355.904 494.247 355.132 495.137 354.617L504.699 349.095C505.589 348.58 506.955 348.521 507.727 348.976L517.387 354.558C518.159 355.013 518.06 355.785 517.17 356.3L507.608 361.822C506.718 362.337 505.352 362.396 504.58 361.941Z" fill="#06033E"/>
<path opacity="0.4" d="M519.486 370.551L509.825 364.969C509.053 364.514 509.152 363.742 510.043 363.227L519.604 357.705C520.495 357.19 521.861 357.131 522.633 357.586L532.293 363.168C533.065 363.623 532.966 364.395 532.075 364.91L522.514 370.432C521.623 370.947 520.258 371.006 519.486 370.551Z" fill="#06033E"/>
<path opacity="0.4" d="M534.392 379.161L524.731 373.579C523.959 373.124 524.058 372.352 524.949 371.837L534.51 366.315C535.401 365.8 536.767 365.741 537.539 366.196L547.199 371.778C547.971 372.233 547.872 373.005 546.981 373.52L537.42 379.042C536.529 379.557 535.164 379.596 534.392 379.161Z" fill="#06033E"/>
<path opacity="0.4" d="M549.297 387.771L539.637 382.189C538.865 381.734 538.964 380.962 539.855 380.448L549.416 374.925C550.307 374.411 551.673 374.351 552.445 374.806L562.105 380.388C562.877 380.843 562.778 381.615 561.887 382.13L552.326 387.652C551.435 388.147 550.069 388.207 549.297 387.771Z" fill="#06033E"/>
<path opacity="0.4" d="M344.832 319.979L316.407 303.57C315.635 303.115 315.734 302.343 316.624 301.828L326.185 296.306C327.076 295.791 328.442 295.732 329.214 296.187L357.64 312.596C358.412 313.051 358.313 313.823 357.422 314.338L347.861 319.86C346.951 320.375 345.604 320.434 344.832 319.979Z" fill="#06033E"/>
<path opacity="0.4" d="M527.958 425.695L499.532 409.286C498.76 408.831 498.859 408.059 499.75 407.544L509.311 402.022C510.202 401.507 511.568 401.448 512.34 401.903L540.765 418.312C541.537 418.767 541.438 419.539 540.548 420.054L530.987 425.576C530.076 426.091 528.73 426.15 527.958 425.695Z" fill="#06033E"/>
<path opacity="0.4" d="M468.335 410.296L458.675 404.714C457.903 404.259 458.002 403.487 458.893 402.972L470.295 396.401C471.185 395.886 472.551 395.827 473.323 396.282L482.983 401.864C483.755 402.319 483.656 403.091 482.766 403.606L471.364 410.177C470.473 410.692 469.127 410.751 468.335 410.296Z" fill="#06033E"/>
<path opacity="0.4" d="M360.095 347.808L344.654 338.901C343.882 338.446 343.981 337.674 344.872 337.159L356.274 330.588C357.165 330.073 358.531 330.014 359.303 330.469L374.743 339.376C375.515 339.831 375.416 340.603 374.525 341.118L363.123 347.689C362.213 348.184 360.867 348.244 360.095 347.808Z" fill="#06033E"/>
<path opacity="0.4" d="M453.983 402.002L438.543 393.095C437.771 392.64 437.87 391.868 438.761 391.353L450.163 384.782C451.054 384.267 452.419 384.208 453.192 384.663L468.632 393.57C469.404 394.026 469.305 394.798 468.414 395.312L457.012 401.884C456.101 402.398 454.755 402.458 453.983 402.002Z" fill="#06033E"/>
<path opacity="0.4" d="M381.592 360.219L366.152 351.312C365.38 350.856 365.479 350.084 366.37 349.57L377.772 342.998C378.663 342.484 380.029 342.424 380.801 342.88L396.241 351.787C397.013 352.242 396.914 353.014 396.023 353.528L384.621 360.1C383.73 360.614 382.384 360.674 381.592 360.219Z" fill="#06033E"/>
<path opacity="0.4" d="M380.899 342.919L448.005 381.675C448.837 382.15 448.837 382.941 448.005 383.416L436.385 390.126C435.554 390.601 434.208 390.601 433.377 390.126L366.271 351.391L380.899 342.919Z" fill="#06033E"/>
<path opacity="0.4" d="M510.004 425.893L520.753 432.108C521.386 432.484 521.307 433.118 520.575 433.533L515.923 436.225C515.19 436.641 514.082 436.7 513.448 436.324L502.699 430.109C502.066 429.733 502.145 429.099 502.878 428.684L507.529 425.992C508.262 425.576 509.37 425.537 510.004 425.893Z" fill="#06033E"/>
<path opacity="0.4" d="M494.979 417.223L505.728 423.438C506.361 423.814 506.282 424.448 505.55 424.864L500.898 427.555C500.166 427.971 499.057 428.03 498.424 427.654L487.675 421.439C487.041 421.063 487.12 420.43 487.853 420.014L492.505 417.322C493.237 416.907 494.346 416.847 494.979 417.223Z" fill="#06033E"/>
<path opacity="0.4" d="M480.073 408.613L490.822 414.829C491.456 415.205 491.376 415.838 490.644 416.254L485.992 418.946C485.26 419.361 484.151 419.421 483.518 419.045L472.769 412.829C472.136 412.453 472.215 411.82 472.947 411.404L477.599 408.712C478.331 408.297 479.44 408.257 480.073 408.613Z" fill="#06033E"/>
<path opacity="0.4" d="M503.214 412.473L513.963 418.688C514.596 419.064 514.517 419.698 513.785 420.113L509.133 422.805C508.4 423.221 507.292 423.28 506.658 422.904L495.91 416.689C495.276 416.313 495.355 415.68 496.088 415.264L500.74 412.572C501.452 412.156 502.561 412.097 503.214 412.473Z" fill="#06033E"/>
</g>
<path d="M660.962 395.055L376.188 230.651C371.714 228.059 369.379 221.764 370.962 216.578L435.376 7.50164C436.979 2.31579 441.888 0.217703 446.382 2.79083L731.156 167.194C735.63 169.787 737.965 176.081 736.382 181.267L671.988 390.344C670.365 395.53 665.436 397.648 660.962 395.055Z" fill="url(#paint7_radial_77_210)"/>
<path d="M658.27 387.731L382.048 228.138C377.772 225.664 375.535 219.627 377.059 214.678L438.622 14.8054C440.147 9.83729 444.858 7.81837 449.153 10.2925L725.376 169.886C729.652 172.36 731.888 178.397 730.364 183.345L668.801 383.218C667.277 388.187 662.566 390.205 658.27 387.731Z" fill="url(#paint8_linear_77_210)"/>
<path opacity="0.4" d="M658.27 387.731L382.048 228.138C377.772 225.664 375.535 219.627 377.059 214.678L438.622 14.8054C440.147 9.83729 444.858 7.81837 449.153 10.2925L725.376 169.886C729.652 172.36 731.888 178.397 730.364 183.345L668.801 383.218C667.277 388.187 662.566 390.205 658.27 387.731Z" fill="#06033E"/>
<path opacity="0.4" d="M658.27 387.731L382.048 228.138C377.772 225.664 375.535 219.627 377.059 214.678L438.622 14.8054C440.147 9.83729 444.858 7.81837 449.153 10.2925L725.376 169.886C729.652 172.36 731.888 178.397 730.364 183.345L668.801 383.218C667.277 388.187 662.566 390.205 658.27 387.731Z" fill="#06033E"/>
<path opacity="0.22" d="M643.443 326.649L456.458 218.696C453.508 216.994 451.984 212.857 453.033 209.453L495.316 72.1664C496.365 68.762 499.591 67.3764 502.541 69.0787L689.526 177.031C692.476 178.734 694 182.87 692.951 186.275L650.669 323.561C649.619 326.966 646.373 328.351 643.443 326.649Z" fill="#06033E"/>
<path d="M618.185 329.974L431.199 222.022C428.25 220.319 426.725 216.183 427.775 212.778L470.057 75.4917C471.106 72.0873 474.333 70.7018 477.282 72.404L664.268 180.357C667.217 182.059 668.742 186.196 667.693 189.6L625.41 326.887C624.341 330.291 621.114 331.657 618.185 329.974Z" fill="url(#paint9_radial_77_210)"/>
<g opacity="0.5">
<path opacity="0.5" d="M618.185 329.974L431.199 222.022C428.25 220.319 426.725 216.183 427.775 212.778L470.057 75.4917C471.106 72.0873 474.333 70.7018 477.282 72.404L664.268 180.357C667.217 182.059 668.742 186.196 667.693 189.6L625.41 326.887C624.341 330.291 621.114 331.657 618.185 329.974Z" fill="#06033E"/>
</g>
<path d="M664.248 180.357L477.263 72.404C475.422 71.3351 473.462 71.4935 471.997 72.5821C472.888 72.5623 473.798 72.7602 474.689 73.2749L661.675 181.228C664.624 182.93 666.148 187.067 665.099 190.471L622.817 327.757C622.421 329.024 621.728 330.014 620.857 330.667C622.856 330.608 624.658 329.242 625.37 326.887L667.653 189.6C668.722 186.196 667.198 182.059 664.248 180.357Z" fill="white"/>
<path opacity="0.4" d="M382.345 442.064C379.771 442.064 377.297 441.53 375.416 440.441L300.491 397.193C298.512 396.045 297.423 394.402 297.423 392.581C297.423 390.463 298.928 388.365 301.56 386.86L340.121 364.593C344.833 361.881 351.741 361.604 355.878 363.979L430.783 407.228C432.763 408.376 433.852 410.019 433.871 411.84C433.871 413.958 432.367 416.056 429.734 417.56L391.173 439.827C388.6 441.312 385.393 442.064 382.345 442.064ZM348.97 364.553C346.258 364.553 343.388 365.207 341.19 366.473L302.629 388.741C300.689 389.869 299.581 391.274 299.581 392.601C299.581 393.907 300.67 394.817 301.58 395.332L376.505 438.58C379.91 440.54 386.125 440.263 390.084 437.967L428.646 415.699C430.585 414.571 431.694 413.186 431.694 411.84C431.694 410.533 430.605 409.623 429.695 409.108L354.79 365.86C353.265 364.989 351.167 364.553 348.97 364.553Z" fill="#06033E"/>
<path d="M522.811 144.432L511.251 137.761C510.182 137.148 509.608 135.663 509.964 134.436C510.32 133.229 511.488 132.734 512.557 133.348L524.118 140.018C525.186 140.632 525.761 142.116 525.404 143.343C525.048 144.57 523.88 145.045 522.811 144.432Z" fill="url(#paint10_radial_77_210)"/>
<path d="M550.346 160.326L533.302 150.489C532.234 149.875 531.659 148.39 532.016 147.163C532.372 145.956 533.54 145.461 534.609 146.075L551.653 155.912C552.722 156.525 553.296 158.01 552.939 159.237C552.583 160.464 551.415 160.959 550.346 160.326Z" fill="url(#paint11_radial_77_210)"/>
<path d="M499.492 195.894L487.932 189.224C486.863 188.61 486.289 187.126 486.645 185.899C487.001 184.691 488.169 184.197 489.238 184.81L500.799 191.48C501.868 192.094 502.442 193.579 502.085 194.806C501.729 196.033 500.581 196.508 499.492 195.894Z" fill="url(#paint12_radial_77_210)"/>
<path d="M524.039 210.066L506.995 200.229C505.926 199.616 505.352 198.131 505.708 196.904C506.064 195.696 507.232 195.202 508.301 195.815L525.345 205.653C526.414 206.266 526.988 207.751 526.632 208.978C526.275 210.205 525.127 210.68 524.039 210.066Z" fill="url(#paint13_radial_77_210)"/>
<path d="M488.189 135.267L480.964 131.091C479.895 130.477 479.321 128.993 479.677 127.766C480.034 126.558 481.202 126.064 482.271 126.677L489.496 130.854C490.565 131.467 491.139 132.952 490.783 134.179C490.426 135.406 489.258 135.881 488.189 135.267Z" fill="url(#paint14_radial_77_210)"/>
<path d="M509.905 158.624L487.833 145.877C486.764 145.263 486.19 143.779 486.546 142.551C486.903 141.344 488.071 140.849 489.139 141.463L511.211 154.21C512.28 154.823 512.854 156.308 512.498 157.535C512.142 158.762 510.993 159.257 509.905 158.624Z" fill="url(#paint15_radial_77_210)"/>
<path d="M489.555 168.52L482.33 164.344C481.261 163.73 480.687 162.246 481.043 161.019C481.399 159.811 482.567 159.316 483.636 159.93L490.862 164.106C491.931 164.72 492.505 166.204 492.148 167.432C491.792 168.659 490.644 169.134 489.555 168.52Z" fill="url(#paint16_radial_77_210)"/>
<path d="M526.711 233.244L507.43 222.101C506.361 221.487 505.787 220.003 506.143 218.775C506.5 217.568 507.668 217.073 508.737 217.687L528.017 228.83C529.086 229.444 529.66 230.929 529.304 232.156C528.948 233.383 527.78 233.858 526.711 233.244Z" fill="url(#paint17_radial_77_210)"/>
<path d="M481.459 185.483L476.827 182.811C475.758 182.197 475.184 180.713 475.54 179.486C475.897 178.278 477.064 177.784 478.133 178.397L482.765 181.069C483.834 181.683 484.408 183.167 484.052 184.395C483.696 185.622 482.548 186.117 481.459 185.483Z" fill="url(#paint18_radial_77_210)"/>
<path d="M477.084 204.603L471.324 201.278C470.255 200.665 469.681 199.18 470.037 197.953C470.393 196.746 471.561 196.251 472.63 196.864L478.391 200.19C479.46 200.803 480.034 202.288 479.677 203.515C479.321 204.722 478.153 205.217 477.084 204.603Z" fill="url(#paint19_radial_77_210)"/>
<path d="M499.472 217.528L484.29 208.76C483.221 208.146 482.647 206.662 483.003 205.435C483.359 204.227 484.527 203.733 485.596 204.346L500.779 213.115C501.848 213.728 502.422 215.213 502.066 216.44C501.709 217.667 500.541 218.142 499.472 217.528Z" fill="url(#paint20_radial_77_210)"/>
<path d="M479.479 216.796L468.572 210.502C467.503 209.888 466.929 208.404 467.286 207.177C467.642 205.969 468.81 205.474 469.879 206.088L480.786 212.382C481.855 212.996 482.429 214.48 482.073 215.707C481.716 216.935 480.548 217.429 479.479 216.796Z" fill="url(#paint21_radial_77_210)"/>
<path d="M543.26 242.844L536.252 238.806C535.183 238.193 534.609 236.708 534.965 235.481C535.322 234.274 536.49 233.779 537.559 234.392L544.566 238.43C545.635 239.044 546.209 240.528 545.853 241.755C545.497 242.983 544.329 243.458 543.26 242.844Z" fill="url(#paint22_radial_77_210)"/>
<path d="M516.417 184.018L497.137 172.875C496.068 172.261 495.494 170.777 495.85 169.549C496.206 168.342 497.374 167.847 498.443 168.461L517.724 179.604C518.793 180.218 519.367 181.703 519.01 182.93C518.654 184.157 517.506 184.652 516.417 184.018Z" fill="url(#paint23_radial_77_210)"/>
<path d="M518.714 174.537L485.101 155.14C484.032 154.526 483.458 153.042 483.815 151.815C484.171 150.607 485.339 150.113 486.408 150.726L520.02 170.124C521.089 170.737 521.663 172.222 521.307 173.449C520.95 174.656 519.782 175.151 518.714 174.537Z" fill="url(#paint24_radial_77_210)"/>
<path d="M498.879 184.711L479.598 173.568C478.529 172.954 477.955 171.47 478.311 170.242C478.668 169.035 479.836 168.54 480.905 169.154L500.185 180.297C501.254 180.911 501.828 182.395 501.472 183.623C501.116 184.85 499.948 185.345 498.879 184.711Z" fill="url(#paint25_radial_77_210)"/>
<path d="M531.046 192.47L524.038 188.432C522.969 187.819 522.395 186.334 522.752 185.107C523.108 183.9 524.276 183.405 525.345 184.018L532.352 188.056C533.421 188.67 533.995 190.154 533.639 191.382C533.283 192.609 532.135 193.084 531.046 192.47Z" fill="url(#paint26_radial_77_210)"/>
<path d="M602.348 190.352L560.857 166.402C559.788 165.789 559.214 164.304 559.571 163.077C559.927 161.87 561.095 161.375 562.164 161.988L603.655 185.938C604.724 186.552 605.298 188.036 604.941 189.264C604.585 190.471 603.417 190.966 602.348 190.352Z" fill="url(#paint27_radial_77_210)"/>
<path d="M497.256 205.435L474.075 192.055C473.006 191.441 472.432 189.956 472.789 188.729C473.145 187.522 474.313 187.027 475.382 187.641L498.562 201.021C499.631 201.635 500.205 203.119 499.849 204.346C499.492 205.554 498.344 206.048 497.256 205.435Z" fill="url(#paint28_radial_77_210)"/>
<path d="M500.759 131.705L483.716 121.867C482.647 121.254 482.073 119.769 482.429 118.542C482.785 117.335 483.953 116.84 485.022 117.454L502.066 127.291C503.135 127.904 503.709 129.389 503.352 130.616C502.996 131.843 501.828 132.318 500.759 131.705Z" fill="url(#paint29_radial_77_210)"/>
<path d="M475.916 225.565L456.18 214.164C455.111 213.55 454.537 212.066 454.894 210.838C455.25 209.631 456.418 209.136 457.487 209.75L477.223 221.151C478.292 221.764 478.866 223.249 478.509 224.476C478.153 225.703 476.985 226.178 475.916 225.565Z" fill="url(#paint30_radial_77_210)"/>
<path d="M607 168.995L598.548 164.126C597.756 163.671 597.34 162.582 597.617 161.692C597.875 160.801 598.726 160.445 599.518 160.9L607.97 165.769C608.762 166.224 609.178 167.313 608.901 168.204C608.624 169.094 607.772 169.451 607 168.995Z" fill="white"/>
<path d="M623.114 178.318L614.661 173.449C613.869 172.993 613.454 171.905 613.731 171.014C613.988 170.123 614.839 169.767 615.631 170.222L624.083 175.092C624.875 175.547 625.291 176.635 625.014 177.526C624.757 178.417 623.905 178.753 623.114 178.318Z" fill="white"/>
<path d="M639.227 187.621L630.774 182.752C629.982 182.296 629.567 181.208 629.844 180.317C630.101 179.426 630.952 179.07 631.744 179.525L640.197 184.394C640.989 184.85 641.404 185.938 641.127 186.829C640.87 187.72 640.019 188.056 639.227 187.621Z" fill="white"/>
<path d="M647.165 192.193L646.907 192.035C646.116 191.579 645.7 190.491 645.977 189.6C646.234 188.709 647.086 188.353 647.877 188.808L648.135 188.967C648.927 189.422 649.342 190.511 649.065 191.401C648.788 192.292 647.937 192.648 647.165 192.193Z" fill="#F8359E"/>
<path d="M211.037 291.061C205.692 291.061 200.347 289.675 195.577 286.924L138.982 254.245C136.528 252.82 135.063 250.286 135.063 247.456C135.063 244.626 136.528 242.092 138.982 240.667L195.577 207.988C205.118 202.486 216.975 202.486 226.517 207.988L283.111 240.667C285.566 242.092 287.031 244.626 287.031 247.456C287.031 250.286 285.566 252.82 283.111 254.245L226.517 286.924C221.746 289.695 216.381 291.061 211.037 291.061ZM197.418 283.757C205.831 288.606 216.263 288.606 224.676 283.757L281.27 251.078C282.577 250.326 283.349 248.98 283.349 247.476C283.349 245.971 282.577 244.626 281.27 243.873L224.676 211.195C216.263 206.345 205.831 206.345 197.418 211.195L140.823 243.873C139.517 244.626 138.745 245.971 138.745 247.476C138.745 248.98 139.517 250.326 140.823 251.078L197.418 283.757Z" fill="url(#paint31_radial_77_210)"/>
<defs>
<filter id="filter0_f_77_210" x="125.392" y="230.54" width="582.456" height="374.289" filterUnits="userSpaceOnUse" color-interpolation-filters="sRGB">
<feFlood flood-opacity="0" result="BackgroundImageFix"/>
<feBlend mode="normal" in="SourceGraphic" in2="BackgroundImageFix" result="shape"/>
<feGaussianBlur stdDeviation="22.5" result="effect1_foregroundBlur_77_210"/>
</filter>
<radialGradient id="paint0_radial_77_210" cx="0" cy="0" r="1" gradientUnits="userSpaceOnUse" gradientTransform="translate(835.713 478.309) scale(26.4777 26.4751)">
<stop stop-color="#1B7EE4"/>
<stop offset="0.6027" stop-color="#009BD8"/>
<stop offset="0.7582" stop-color="#1993D1"/>
<stop offset="1" stop-color="#3D87C7"/>
</radialGradient>
<radialGradient id="paint1_radial_77_210" cx="0" cy="0" r="1" gradientUnits="userSpaceOnUse" gradientTransform="translate(769.265 389.847) scale(44.2809 44.2766)">
<stop stop-color="#1B7EE4"/>
<stop offset="0.6027" stop-color="#009BD8"/>
<stop offset="0.7582" stop-color="#1993D1"/>
<stop offset="1" stop-color="#3D87C7"/>
</radialGradient>
<radialGradient id="paint2_radial_77_210" cx="0" cy="0" r="1" gradientUnits="userSpaceOnUse" gradientTransform="translate(54.2173 426.172) scale(44.2809 44.2766)">
<stop stop-color="#1B7EE4"/>
<stop offset="0.6027" stop-color="#009BD8"/>
<stop offset="0.7582" stop-color="#1993D1"/>
<stop offset="1" stop-color="#3D87C7"/>
</radialGradient>
<radialGradient id="paint3_radial_77_210" cx="0" cy="0" r="1" gradientUnits="userSpaceOnUse" gradientTransform="translate(415.608 419.217) scale(236.881 236.859)">
<stop stop-color="#1B7EE4"/>
<stop offset="0.6027" stop-color="#009BD8"/>
<stop offset="0.7582" stop-color="#1993D1"/>
<stop offset="1" stop-color="#3D87C7"/>
</radialGradient>
<radialGradient id="paint4_radial_77_210" cx="0" cy="0" r="1" gradientUnits="userSpaceOnUse" gradientTransform="translate(442.543 -13.4644) scale(231.353 231.331)">
<stop stop-color="#1B7EE4"/>
<stop offset="0.4742" stop-color="#009BD8"/>
<stop offset="0.5728" stop-color="#1993D1"/>
<stop offset="0.7262" stop-color="#3D87C7"/>
<stop offset="1" stop-color="#0E4478"/>
</radialGradient>
<radialGradient id="paint5_radial_77_210" cx="0" cy="0" r="1" gradientUnits="userSpaceOnUse" gradientTransform="translate(175.56 345.722) scale(483.344 483.298)">
<stop stop-color="#1B7EE4"/>
<stop offset="0.4742" stop-color="#009BD8"/>
<stop offset="0.5728" stop-color="#1993D1"/>
<stop offset="0.7262" stop-color="#3D87C7"/>
<stop offset="1" stop-color="#0E4478"/>
</radialGradient>
<radialGradient id="paint6_radial_77_210" cx="0" cy="0" r="1" gradientUnits="userSpaceOnUse" gradientTransform="translate(220.015 248.716) scale(433.436 433.394)">
<stop stop-color="#1B7EE4"/>
<stop offset="0.4742" stop-color="#009BD8"/>
<stop offset="0.5728" stop-color="#1993D1"/>
<stop offset="0.7262" stop-color="#3D87C7"/>
<stop offset="1" stop-color="#0E4478"/>
</radialGradient>
<radialGradient id="paint7_radial_77_210" cx="0" cy="0" r="1" gradientUnits="userSpaceOnUse" gradientTransform="translate(327.993 82.9743) scale(442.108 442.066)">
<stop stop-color="#1B7EE4"/>
<stop offset="0.4742" stop-color="#009BD8"/>
<stop offset="0.5728" stop-color="#1993D1"/>
<stop offset="0.7262" stop-color="#3D87C7"/>
<stop offset="1" stop-color="#0E4478"/>
</radialGradient>
<linearGradient id="paint8_linear_77_210" x1="376.585" y1="199.017" x2="730.853" y2="199.017" gradientUnits="userSpaceOnUse">
<stop stop-color="#3919BB"/>
<stop offset="1" stop-color="#6507FA"/>
</linearGradient>
<radialGradient id="paint9_radial_77_210" cx="0" cy="0" r="1" gradientUnits="userSpaceOnUse" gradientTransform="translate(166.599 -11.4264) scale(688.571 688.505)">
<stop stop-color="#1B7EE4"/>
<stop offset="0.4742" stop-color="#1B7FE6"/>
<stop offset="0.6438" stop-color="#4F2BF4"/>
<stop offset="0.7262" stop-color="#6507FA"/>
<stop offset="1" stop-color="#3919BB"/>
</radialGradient>
<radialGradient id="paint10_radial_77_210" cx="0" cy="0" r="1" gradientUnits="userSpaceOnUse" gradientTransform="translate(517.689 138.895) scale(6.89467 6.89402)">
<stop stop-color="#1B7EE4"/>
<stop offset="1" stop-color="#009BD8"/>
</radialGradient>
<radialGradient id="paint11_radial_77_210" cx="0" cy="0" r="1" gradientUnits="userSpaceOnUse" gradientTransform="translate(542.483 153.208) scale(9.12301 9.12214)">
<stop stop-color="#1B7EE4"/>
<stop offset="1" stop-color="#009BD8"/>
</radialGradient>
<radialGradient id="paint12_radial_77_210" cx="0" cy="0" r="1" gradientUnits="userSpaceOnUse" gradientTransform="translate(494.376 190.357) scale(6.89467 6.89401)">
<stop stop-color="#1B7EE4"/>
<stop offset="1" stop-color="#009BD8"/>
</radialGradient>
<radialGradient id="paint13_radial_77_210" cx="0" cy="0" r="1" gradientUnits="userSpaceOnUse" gradientTransform="translate(516.18 202.944) scale(9.12303 9.12214)">
<stop stop-color="#1B7EE4"/>
<stop offset="1" stop-color="#009BD8"/>
</radialGradient>
<radialGradient id="paint14_radial_77_210" cx="0" cy="0" r="1" gradientUnits="userSpaceOnUse" gradientTransform="translate(485.23 130.976) scale(5.13904 5.13854)">
<stop stop-color="#1B7EE4"/>
<stop offset="1" stop-color="#009BD8"/>
</radialGradient>
<radialGradient id="paint15_radial_77_210" cx="0" cy="0" r="1" gradientUnits="userSpaceOnUse" gradientTransform="translate(499.538 150.056) scale(11.1657 11.1646)">
<stop stop-color="#1B7EE4"/>
<stop offset="1" stop-color="#009BD8"/>
</radialGradient>
<radialGradient id="paint16_radial_77_210" cx="0" cy="0" r="1" gradientUnits="userSpaceOnUse" gradientTransform="translate(486.609 164.233) scale(5.13905 5.13854)">
<stop stop-color="#1B7EE4"/>
<stop offset="1" stop-color="#009BD8"/>
</radialGradient>
<radialGradient id="paint17_radial_77_210" cx="0" cy="0" r="1" gradientUnits="userSpaceOnUse" gradientTransform="translate(517.72 225.473) scale(10.0354 10.0344)">
<stop stop-color="#1B7EE4"/>
<stop offset="1" stop-color="#009BD8"/>
</radialGradient>
<radialGradient id="paint18_radial_77_210" cx="0" cy="0" r="1" gradientUnits="userSpaceOnUse" gradientTransform="translate(479.808 181.947) scale(4.099 4.0986)">
<stop stop-color="#1B7EE4"/>
<stop offset="1" stop-color="#009BD8"/>
</radialGradient>
<radialGradient id="paint19_radial_77_210" cx="0" cy="0" r="1" gradientUnits="userSpaceOnUse" gradientTransform="translate(474.861 200.731) scale(4.54896 4.5485)">
<stop stop-color="#1B7EE4"/>
<stop offset="1" stop-color="#009BD8"/>
</radialGradient>
<radialGradient id="paint20_radial_77_210" cx="0" cy="0" r="1" gradientUnits="userSpaceOnUse" gradientTransform="translate(492.545 210.94) scale(8.36309 8.36228)">
<stop stop-color="#1B7EE4"/>
<stop offset="1" stop-color="#009BD8"/>
</radialGradient>
<radialGradient id="paint21_radial_77_210" cx="0" cy="0" r="1" gradientUnits="userSpaceOnUse" gradientTransform="translate(474.685 211.45) scale(6.63198 6.63135)">
<stop stop-color="#1B7EE4"/>
<stop offset="1" stop-color="#009BD8"/>
</radialGradient>
<radialGradient id="paint22_radial_77_210" cx="0" cy="0" r="1" gradientUnits="userSpaceOnUse" gradientTransform="translate(540.407 238.617) scale(5.05293 5.05244)">
<stop stop-color="#1B7EE4"/>
<stop offset="1" stop-color="#009BD8"/>
</radialGradient>
<radialGradient id="paint23_radial_77_210" cx="0" cy="0" r="1" gradientUnits="userSpaceOnUse" gradientTransform="translate(507.438 176.257) scale(10.0354 10.0344)">
<stop stop-color="#1B7EE4"/>
<stop offset="1" stop-color="#009BD8"/>
</radialGradient>
<radialGradient id="paint24_radial_77_210" cx="0" cy="0" r="1" gradientUnits="userSpaceOnUse" gradientTransform="translate(502.56 162.622) scale(15.8735 15.8721)">
<stop stop-color="#1B7EE4"/>
<stop offset="1" stop-color="#009BD8"/>
</radialGradient>
<radialGradient id="paint25_radial_77_210" cx="0" cy="0" r="1" gradientUnits="userSpaceOnUse" gradientTransform="translate(489.888 176.946) scale(10.0354 10.0344)">
<stop stop-color="#1B7EE4"/>
<stop offset="1" stop-color="#009BD8"/>
</radialGradient>
<radialGradient id="paint26_radial_77_210" cx="0" cy="0" r="1" gradientUnits="userSpaceOnUse" gradientTransform="translate(528.208 188.248) scale(5.05293 5.05244)">
<stop stop-color="#1B7EE4"/>
<stop offset="1" stop-color="#009BD8"/>
</radialGradient>
<radialGradient id="paint27_radial_77_210" cx="0" cy="0" r="1" gradientUnits="userSpaceOnUse" gradientTransform="translate(582.246 176.164) scale(19.0885 19.0867)">
<stop stop-color="#1B7EE4"/>
<stop offset="1" stop-color="#009BD8"/>
</radialGradient>
<radialGradient id="paint28_radial_77_210" cx="0" cy="0" r="1" gradientUnits="userSpaceOnUse" gradientTransform="translate(486.329 196.532) scale(11.6223 11.6213)">
<stop stop-color="#1B7EE4"/>
<stop offset="1" stop-color="#009BD8"/>
</radialGradient>
<radialGradient id="paint29_radial_77_210" cx="0" cy="0" r="1" gradientUnits="userSpaceOnUse" gradientTransform="translate(492.896 124.582) scale(9.12301 9.12215)">
<stop stop-color="#1B7EE4"/>
<stop offset="1" stop-color="#009BD8"/>
</radialGradient>
<radialGradient id="paint30_radial_77_210" cx="0" cy="0" r="1" gradientUnits="userSpaceOnUse" gradientTransform="translate(466.705 217.663) scale(10.2201 10.2191)">
<stop stop-color="#1B7EE4"/>
<stop offset="1" stop-color="#009BD8"/>
</radialGradient>
<radialGradient id="paint31_radial_77_210" cx="0" cy="0" r="1" gradientUnits="userSpaceOnUse" gradientTransform="translate(211.041 247.474) scale(61.9485 61.9426)">
<stop stop-color="#1B7EE4"/>
<stop offset="0.6027" stop-color="#009BD8"/>
<stop offset="0.7582" stop-color="#1993D1"/>
<stop offset="1" stop-color="#3D87C7"/>
</radialGradient>
</defs>
</svg>
